<svg xmlns="http://www.w3.org/2000/svg" viewBox="0 0 190.2 43.51"><defs><style>.cls-1{fill:#70bf97;}</style></defs><g id="Calque_2" data-name="Calque 2"><g id="Calque_7" data-name="Calque 7"><path class="cls-1" d="M9.89,42.9c2.63-.4,3.27-1.52,8.74-5.54C27,31.21,29.17,31.15,31,27.5c1.94-3.81,4.07-10.37,3.15-10.7-.56-.21-3.85,2.95-4.51,4.4-3.79,8.35-14.46,8.54-14.85,7.89s3.84-2.54,5.42-7.33c.09-.28.93-2.86.24-3.26-.45-.26-1.35.51-2.09,1.17C14,23.58,14,24.4,12,25.87c-2.46,1.82-5.05,2.48-5.79,4.24a9.84,9.84,0,0,0-.54,1.75A14.25,14.25,0,0,0,5.44,34c-.09,1.31-.13,2-.15,2-.4.94-1.32,1-3.51,2.29C.62,39,0,39.31,0,39.63-.13,40.87,5,43.64,9.89,42.9Z"/><path class="cls-1" d="M42.31,3.35c.13-1.24-5-4-9.9-3.22-2.63.42-3.26,1.54-8.72,5.58C15.35,11.9,13.19,12,11.34,15.63,9.41,19.45,7.32,26,8.23,26.35c.57.2,3.84-3,4.49-4.43,3.75-8.37,14.42-8.61,14.81-8,.3.5-3.83,2.55-5.38,7.35-.09.28-.91,2.86-.22,3.26.44.26,1.34-.52,2.08-1.18,4.42-3.94,4.41-4.75,6.4-6.23,2.45-1.83,5-2.51,5.77-4.26a9.55,9.55,0,0,0,.53-1.76,14.81,14.81,0,0,0,.19-2.09c.08-1.32.13-2,.14-2,.4-1,1.32-1,3.5-2.31C41.7,4,42.28,3.67,42.31,3.35"/><path class="cls-1" d="M22.11,24.26q.29.07,1.65-1.14c1.7-1.51,2.73-2.56,3.48-3.36-.75-.89-1.5-1.76-2.24-2.6a12.07,12.07,0,0,0-2.49,4.27C22,23,22,24.12,22.11,24.26Z"/><path class="cls-1" d="M20.3,18.82h0c-.22,0-.76.38-1.61,1.13-1.71,1.5-2.75,2.55-3.5,3.34.73.92,1.45,1.81,2.19,2.67a12.25,12.25,0,0,0,2.55-4.31C20.42,20.05,20.47,19,20.3,18.82Z"/><path class="cls-1" d="M28.93,21.8l-1.2-1.46c-.76.81-1.8,1.85-3.47,3.34-1,.89-1.87,1.6-2.52,1.22s-.41-2.27.05-3.7a12.9,12.9,0,0,1,2.71-4.61c-.62-.7-1.22-1.36-1.81-2-.42.1-.85.22-1.3.36a13.66,13.66,0,0,0-7.86,6.25l1.15,1.5c.76-.8,1.8-1.84,3.47-3.31,1-.92,1.88-1.59,2.53-1.21s.4,2.27-.07,3.7a12.91,12.91,0,0,1-2.78,4.65q.9,1,1.77,2c.45-.11.91-.23,1.38-.38A13.62,13.62,0,0,0,28.93,21.8Z"/><path class="cls-1" d="M11.67,15.8c-.27.54-.54,1.12-.8,1.72.7,1,1.42,2,2.16,3A14.79,14.79,0,0,1,22.1,14l-.51-.55C20.39,12.15,19.25,11,18.16,10l-1.05.69C14.08,12.7,12.82,13.52,11.67,15.8Z"/><path class="cls-1" d="M31.37,27.67C30.12,30.12,28.72,31,25.65,33l-.78.5c8,6.75,14.46,8.17,16.35,7.87-.29-3-4.25-9.19-9-15.45C31.91,26.56,31.64,27.15,31.37,27.67Z"/><path class="cls-1" d="M41.23,41.45Z"/><path class="cls-1" d="M41.23,41.45v0Z"/><path class="cls-1" d="M11,15.46c1.24-2.45,2.64-3.37,5.7-5.36l.88-.58C9.85,2.6,4.78,1.77,2.41,2.12c.77,3.08,4,8.83,8,14.68C10.58,16.32,10.8,15.87,11,15.46Z"/><path class="cls-1" d="M30.7,27.33c.33-.65.66-1.35,1-2.08-.73-.94-1.47-1.87-2.21-2.8a14.83,14.83,0,0,1-9.25,6.69C21.6,30.58,23,31.86,24.28,33l1-.63C28.28,30.41,29.54,29.6,30.7,27.33Z"/><path class="cls-1" d="M50.34,42.84H47a1.22,1.22,0,0,1-1.22-1.23V1.55A1.21,1.21,0,0,1,47,.33h3.3a1.22,1.22,0,0,1,1.23,1.22V41.61A1.23,1.23,0,0,1,50.34,42.84Z"/><path class="cls-1" d="M66.32,37H84.26a1.23,1.23,0,0,1,1.23,1.22v3.43a1.23,1.23,0,0,1-1.23,1.23H60.57a1.23,1.23,0,0,1-1.23-1.23V1.55A1.22,1.22,0,0,1,60.57.33h3.3A1.22,1.22,0,0,1,65.1,1.55V35.73A1.22,1.22,0,0,0,66.32,37Z"/><path class="cls-1" d="M95.18,42.84h-3.3a1.23,1.23,0,0,1-1.23-1.23V1.55A1.22,1.22,0,0,1,91.88.33h3.3a1.22,1.22,0,0,1,1.23,1.22V41.61A1.23,1.23,0,0,1,95.18,42.84Z"/><path class="cls-1" d="M108.58.33a1.22,1.22,0,0,1,1.22,1.22V29.32a6.65,6.65,0,0,0,1,3.72,8.94,8.94,0,0,0,2.64,2.63,11.49,11.49,0,0,0,3.73,1.59,17.84,17.84,0,0,0,4.25.51,16.74,16.74,0,0,0,4-.47,10.54,10.54,0,0,0,3.43-1.49,7.58,7.58,0,0,0,2.42-2.64,7.7,7.7,0,0,0,.92-3.85V1.55A1.22,1.22,0,0,1,133.38.33h3.17a1.22,1.22,0,0,1,1.23,1.22V30.13a11.6,11.6,0,0,1-1.41,5.81,13,13,0,0,1-3.72,4.2,16.73,16.73,0,0,1-5.33,2.53,23,23,0,0,1-6.21.84,22.55,22.55,0,0,1-6.24-.87A17.15,17.15,0,0,1,109.44,40a13.19,13.19,0,0,1-3.82-4.43,13,13,0,0,1-1.44-6.25V1.55A1.22,1.22,0,0,1,105.41.33Z"/><path class="cls-1" d="M190.2,1.62V41.55A1.23,1.23,0,0,1,189,42.77H185.8a1.22,1.22,0,0,1-1.22-1.22V10.7a1.23,1.23,0,0,0-2.27-.64l0,0c-.7,1.2-1.39,2.45-2.09,3.75q-1.19,2.37-2.32,4.7a24.64,24.64,0,0,1-2.55,4.16,12.48,12.48,0,0,1-3.2,2.94,9.11,9.11,0,0,1-8.66,0,11.11,11.11,0,0,1-3.11-2.87,23.45,23.45,0,0,1-2.39-4q-1-2.24-2.15-4.53t-2.19-4l-.12-.2a1.23,1.23,0,0,0-2.27.64V41.55A1.22,1.22,0,0,1,150,42.77h-3.18a1.22,1.22,0,0,1-1.22-1.22V1.62A1.23,1.23,0,0,1,146.84.39h4a1.17,1.17,0,0,1,.45.09,10.65,10.65,0,0,1,3.15,1.84,16.59,16.59,0,0,1,2.64,2.84,25.37,25.37,0,0,1,2.13,3.38c.63,1.19,1.25,2.38,1.86,3.55.66,1.35,1.22,2.58,1.7,3.68a19.48,19.48,0,0,0,1.44,2.77,6.54,6.54,0,0,0,1.53,1.72,3.24,3.24,0,0,0,2,.61,3.47,3.47,0,0,0,2.09-.61,6.53,6.53,0,0,0,1.6-1.72,19.22,19.22,0,0,0,1.5-2.77c.51-1.1,1.08-2.33,1.74-3.68.56-1.17,1.17-2.36,1.83-3.55a29,29,0,0,1,2.15-3.38,17.06,17.06,0,0,1,2.65-2.84A10.65,10.65,0,0,1,184.49.48a1.17,1.17,0,0,1,.45-.09h4A1.23,1.23,0,0,1,190.2,1.62Z"/></g></g></svg>