<svg xmlns="http://www.w3.org/2000/svg" viewBox="0 0 251.85 45.6"><defs><style>.cls-1{fill:#fff;}</style></defs><g id="Calque_2" data-name="Calque 2"><g id="Calque_7" data-name="Calque 7"><path class="cls-1" d="M9.89,45c2.63-.4,3.27-1.52,8.74-5.54C27,33.3,29.17,33.23,31,29.59c1.94-3.81,4.07-10.37,3.15-10.7-.56-.21-3.85,2.94-4.51,4.4-3.79,8.35-14.46,8.54-14.85,7.88-.3-.5,3.84-2.53,5.42-7.32.09-.29.93-2.86.24-3.26-.45-.26-1.35.51-2.09,1.17C14,25.67,14,26.49,12,28c-2.46,1.81-5.05,2.48-5.79,4.23a10.11,10.11,0,0,0-.54,1.75A14.25,14.25,0,0,0,5.44,36c-.09,1.32-.13,2-.15,2C4.89,39,4,39,1.78,40.34.62,41.05,0,41.4,0,41.72-.13,43,5,45.73,9.89,45Z"/><path class="cls-1" d="M42.31,5.44c.13-1.24-5-4-9.9-3.22-2.63.41-3.26,1.54-8.72,5.58-8.34,6.18-10.5,6.26-12.35,9.92-1.93,3.82-4,10.38-3.11,10.71.57.21,3.84-3,4.49-4.42,3.75-8.37,14.42-8.61,14.81-8,.3.5-3.83,2.56-5.38,7.35-.09.29-.91,2.87-.22,3.27.44.26,1.34-.52,2.08-1.18,4.42-3.94,4.41-4.76,6.4-6.24,2.45-1.82,5-2.5,5.77-4.26a9.33,9.33,0,0,0,.53-1.75,14.81,14.81,0,0,0,.19-2.09c.08-1.32.13-2,.14-2,.4-.94,1.32-1,3.5-2.3,1.16-.72,1.74-1.07,1.77-1.39"/><path class="cls-1" d="M22.11,26.34c.19.06.74-.32,1.65-1.13,1.7-1.51,2.73-2.56,3.48-3.36-.75-.89-1.5-1.77-2.24-2.61a12.21,12.21,0,0,0-2.49,4.28C22,25.12,22,26.2,22.11,26.34Z"/><path class="cls-1" d="M20.3,20.91h0c-.22,0-.76.38-1.61,1.14a48.27,48.27,0,0,0-3.5,3.34c.73.92,1.45,1.81,2.19,2.67a12.3,12.3,0,0,0,2.55-4.32C20.42,22.13,20.47,21.05,20.3,20.91Z"/><path class="cls-1" d="M28.93,23.89l-1.2-1.46c-.76.8-1.8,1.85-3.47,3.34-1,.89-1.87,1.6-2.52,1.22s-.41-2.27.05-3.7a12.81,12.81,0,0,1,2.71-4.61c-.62-.7-1.22-1.37-1.81-2-.42.11-.85.22-1.3.37a13.64,13.64,0,0,0-7.86,6.24c.38.51.76,1,1.15,1.5.76-.79,1.8-1.83,3.47-3.31,1-.91,1.88-1.58,2.53-1.21s.4,2.27-.07,3.71a12.91,12.91,0,0,1-2.78,4.65c.6.68,1.19,1.35,1.77,2,.45-.1.91-.22,1.38-.37A13.62,13.62,0,0,0,28.93,23.89Z"/><path class="cls-1" d="M11.67,17.89c-.27.54-.54,1.12-.8,1.72.7,1,1.42,2,2.16,3A14.85,14.85,0,0,1,22.1,16l-.51-.54c-1.2-1.26-2.34-2.37-3.43-3.38l-1.05.69C14.08,14.79,12.82,15.61,11.67,17.89Z"/><path class="cls-1" d="M31.37,29.76c-1.25,2.45-2.65,3.35-5.72,5.33l-.78.51c8,6.74,14.46,8.17,16.35,7.86-.29-3-4.25-9.18-9-15.44C31.91,28.65,31.64,29.24,31.37,29.76Z"/><path class="cls-1" d="M41.23,43.54Z"/><path class="cls-1" d="M41.23,43.54v0Z"/><path class="cls-1" d="M11,17.55c1.24-2.46,2.64-3.37,5.7-5.37l.88-.58C9.85,4.69,4.78,3.86,2.41,4.21c.77,3.08,4,8.83,8,14.68C10.58,18.41,10.8,18,11,17.55Z"/><path class="cls-1" d="M30.7,29.42c.33-.65.66-1.36,1-2.08-.73-.94-1.47-1.88-2.21-2.8a14.81,14.81,0,0,1-9.25,6.68C21.6,32.67,23,34,24.28,35.09l1-.63C28.28,32.5,29.54,31.68,30.7,29.42Z"/><path class="cls-1" d="M50.34,44.93H47a1.22,1.22,0,0,1-1.22-1.23V3.64A1.22,1.22,0,0,1,47,2.41h3.3a1.23,1.23,0,0,1,1.23,1.23V43.7A1.23,1.23,0,0,1,50.34,44.93Z"/><path class="cls-1" d="M66.32,39.05H84.26a1.22,1.22,0,0,1,1.23,1.22V43.7a1.23,1.23,0,0,1-1.23,1.23H60.57a1.23,1.23,0,0,1-1.23-1.23V3.64a1.23,1.23,0,0,1,1.23-1.23h3.3A1.23,1.23,0,0,1,65.1,3.64V37.82A1.22,1.22,0,0,0,66.32,39.05Z"/><path class="cls-1" d="M95.18,44.93h-3.3a1.23,1.23,0,0,1-1.23-1.23V3.64a1.23,1.23,0,0,1,1.23-1.23h3.3a1.23,1.23,0,0,1,1.23,1.23V43.7A1.23,1.23,0,0,1,95.18,44.93Z"/><path class="cls-1" d="M108.58,2.41a1.23,1.23,0,0,1,1.22,1.23V31.41a6.59,6.59,0,0,0,1,3.71,9,9,0,0,0,2.64,2.64,11.71,11.71,0,0,0,3.73,1.59,17.84,17.84,0,0,0,4.25.51,16.24,16.24,0,0,0,4-.48,10.52,10.52,0,0,0,3.43-1.48,7.51,7.51,0,0,0,3.34-6.49V3.64a1.23,1.23,0,0,1,1.22-1.23h3.17a1.23,1.23,0,0,1,1.23,1.23V32.22A11.6,11.6,0,0,1,136.37,38a12.9,12.9,0,0,1-3.72,4.19,16.74,16.74,0,0,1-5.33,2.54,23,23,0,0,1-6.21.84,22.19,22.19,0,0,1-6.24-.88,16.92,16.92,0,0,1-5.43-2.63,13.19,13.19,0,0,1-3.82-4.43,13,13,0,0,1-1.44-6.25V3.64a1.23,1.23,0,0,1,1.23-1.23Z"/><path class="cls-1" d="M190.2,3.71V43.63A1.23,1.23,0,0,1,189,44.86H185.8a1.23,1.23,0,0,1-1.22-1.23V12.79a1.23,1.23,0,0,0-2.27-.65l0,0c-.7,1.19-1.39,2.44-2.09,3.75-.79,1.58-1.56,3.14-2.32,4.7a24.53,24.53,0,0,1-2.55,4.15,12.14,12.14,0,0,1-3.2,2.94,9.07,9.07,0,0,1-8.66,0,11.11,11.11,0,0,1-3.11-2.87,23.55,23.55,0,0,1-2.39-4q-1-2.22-2.15-4.52c-.74-1.44-1.47-2.79-2.19-4l-.12-.2a1.23,1.23,0,0,0-2.27.65V43.63A1.23,1.23,0,0,1,150,44.86h-3.18a1.23,1.23,0,0,1-1.22-1.23V3.71a1.23,1.23,0,0,1,1.22-1.23h4a1.38,1.38,0,0,1,.45.08,10.67,10.67,0,0,1,3.15,1.85,16.59,16.59,0,0,1,2.64,2.84,25.37,25.37,0,0,1,2.13,3.38l1.86,3.54c.66,1.35,1.22,2.58,1.7,3.69a20,20,0,0,0,1.44,2.77,6.54,6.54,0,0,0,1.53,1.72,3.24,3.24,0,0,0,2,.61,3.47,3.47,0,0,0,2.09-.61,6.53,6.53,0,0,0,1.6-1.72,19.77,19.77,0,0,0,1.5-2.77c.51-1.11,1.08-2.34,1.74-3.69q.84-1.76,1.83-3.54a29,29,0,0,1,2.15-3.38,17.06,17.06,0,0,1,2.65-2.84,10.67,10.67,0,0,1,3.15-1.85,1.38,1.38,0,0,1,.45-.08h4A1.23,1.23,0,0,1,190.2,3.71Z"/><path class="cls-1" d="M219.42,42.9c2.63-.4,3.27-1.52,8.75-5.54,8.37-6.15,10.53-6.21,12.4-9.86,2-3.81,4.07-10.37,3.15-10.7-.56-.21-3.85,2.95-4.51,4.4-3.79,8.35-14.46,8.54-14.85,7.89s3.85-2.54,5.42-7.33c.1-.28.93-2.86.24-3.26-.45-.26-1.35.51-2.09,1.17-4.43,3.91-4.43,4.73-6.43,6.2-2.46,1.82-5.05,2.48-5.79,4.24a9.84,9.84,0,0,0-.54,1.75A15.91,15.91,0,0,0,215,34c-.09,1.31-.13,2-.15,2-.4.94-1.32,1-3.51,2.29-1.16.71-1.74,1.06-1.78,1.38C209.4,40.87,214.51,43.64,219.42,42.9Z"/><path class="cls-1" d="M251.84,3.35c.13-1.24-5-4-9.9-3.22-2.63.42-3.26,1.54-8.72,5.58-8.34,6.19-10.5,6.26-12.35,9.92-1.93,3.82-4,10.39-3.11,10.72.57.2,3.84-3,4.5-4.43,3.74-8.37,14.41-8.61,14.8-8,.3.5-3.83,2.55-5.38,7.35-.09.28-.91,2.86-.22,3.26.45.26,1.35-.52,2.08-1.18,4.42-3.94,4.41-4.75,6.4-6.23,2.45-1.83,5-2.51,5.77-4.26a9.55,9.55,0,0,0,.53-1.76,13.36,13.36,0,0,0,.19-2.09c.09-1.32.13-2,.14-2,.4-1,1.32-1,3.5-2.31,1.16-.71,1.74-1.07,1.77-1.39"/><path class="cls-1" d="M231.65,24.26c.18,0,.73-.33,1.64-1.14,1.7-1.51,2.73-2.56,3.48-3.36-.75-.89-1.5-1.76-2.24-2.6A12.07,12.07,0,0,0,232,21.43C231.52,23,231.48,24.12,231.65,24.26Z"/><path class="cls-1" d="M229.83,18.82h0c-.22,0-.76.38-1.61,1.13-1.7,1.5-2.75,2.55-3.5,3.34q1.09,1.38,2.19,2.67a12.26,12.26,0,0,0,2.56-4.31C230,20.05,230,19,229.83,18.82Z"/><path class="cls-1" d="M238.46,21.8l-1.2-1.46c-.76.81-1.8,1.85-3.47,3.34-1,.89-1.87,1.6-2.52,1.22-.8-.46-.41-2.27,0-3.7A12.9,12.9,0,0,1,234,16.59c-.62-.7-1.22-1.36-1.81-2-.42.1-.85.22-1.3.36a13.66,13.66,0,0,0-7.86,6.25l1.15,1.5c.76-.8,1.8-1.84,3.47-3.31,1-.92,1.88-1.59,2.53-1.21s.4,2.27-.07,3.7a12.91,12.91,0,0,1-2.78,4.65c.6.69,1.19,1.35,1.78,2,.44-.11.9-.23,1.37-.38A13.62,13.62,0,0,0,238.46,21.8Z"/><path class="cls-1" d="M221.2,15.8c-.27.54-.54,1.12-.8,1.72.7,1,1.42,2,2.16,3A14.79,14.79,0,0,1,231.63,14l-.51-.55c-1.2-1.26-2.34-2.37-3.43-3.38l-1.05.69C223.61,12.7,222.35,13.52,221.2,15.8Z"/><path class="cls-1" d="M240.9,27.67c-1.25,2.45-2.65,3.35-5.72,5.34l-.78.5c8,6.75,14.46,8.17,16.35,7.87-.29-3-4.25-9.19-9-15.45C241.44,26.56,241.17,27.15,240.9,27.67Z"/><path class="cls-1" d="M250.76,41.45s0,0,0,0Z"/><path class="cls-1" d="M250.76,41.45v0Z"/><path class="cls-1" d="M220.53,15.46c1.24-2.45,2.64-3.37,5.7-5.36l.88-.58c-7.73-6.92-12.8-7.75-15.17-7.4.77,3.08,3.95,8.83,8,14.68C220.11,16.32,220.33,15.87,220.53,15.46Z"/><path class="cls-1" d="M240.23,27.33c.34-.65.66-1.35,1-2.08-.72-.94-1.46-1.87-2.21-2.8a14.83,14.83,0,0,1-9.25,6.69c1.39,1.44,2.75,2.72,4.07,3.87l1-.63C237.81,30.41,239.07,29.6,240.23,27.33Z"/></g></g></svg>