<svg xmlns="http://www.w3.org/2000/svg" viewBox="0 0 45 45"><defs><style>.cls-1{fill:#e73b88;}.cls-2{fill:#a1549b;}.cls-3{fill:#11100d;}</style></defs><g id="Calque_2" data-name="Calque 2"><g id="Calque_7" data-name="Calque 7"><path class="cls-1" d="M10.51,44.87c2.81-.42,3.48-1.59,9.31-5.79C28.72,32.65,31,32.58,33,28.77c2.08-4,4.33-10.85,3.36-11.2-.6-.22-4.09,3.08-4.8,4.61-4,8.73-15.37,8.93-15.79,8.24-.31-.52,4.09-2.65,5.77-7.66.09-.3,1-3,.25-3.41-.48-.27-1.44.54-2.23,1.22-4.71,4.1-4.7,4.95-6.83,6.49-2.61,1.9-5.37,2.6-6.16,4.43A10.28,10.28,0,0,0,6,33.32a14.48,14.48,0,0,0-.22,2.19c-.09,1.38-.13,2.07-.15,2.1-.43,1-1.41,1-3.74,2.4C.66,40.75,0,41.12,0,41.46-.14,42.75,5.3,45.65,10.51,44.87Z"/><path class="cls-1" d="M45,3.5C45.13,2.21,39.68-.66,34.47.14,31.67.57,31,1.75,25.2,6,16.32,12.44,14,12.52,12.06,16.35c-2.06,4-4.28,10.86-3.31,11.21.61.21,4.09-3.1,4.78-4.63,4-8.75,15.33-9,15.75-8.32.32.52-4.07,2.67-5.72,7.69-.1.3-1,3-.24,3.41.47.27,1.43-.54,2.22-1.23,4.69-4.12,4.68-5,6.8-6.53,2.61-1.9,5.36-2.61,6.14-4.45A11,11,0,0,0,39,11.67a15.76,15.76,0,0,0,.2-2.19c.09-1.38.13-2.07.15-2.11.43-1,1.4-1,3.72-2.41C44.35,4.21,45,3.84,45,3.5"/><path class="cls-1" d="M23.52,25.37c.19.06.78-.34,1.75-1.19,1.8-1.57,2.9-2.67,3.7-3.51-.8-.93-1.6-1.85-2.38-2.72a12.54,12.54,0,0,0-2.66,4.47C23.38,24.09,23.34,25.23,23.52,25.37Z"/><path class="cls-1" d="M21.59,19.69h-.05c-.23,0-.81.4-1.71,1.19-1.81,1.57-2.92,2.66-3.72,3.5.77.95,1.55,1.88,2.33,2.78a12.78,12.78,0,0,0,2.72-4.51C21.72,21,21.77,19.83,21.59,19.69Z"/><path class="cls-2" d="M30.77,22.81l-1.28-1.53c-.81.84-1.91,1.93-3.69,3.49-1.06.93-2,1.67-2.68,1.28-.85-.48-.44-2.37.06-3.87a13.37,13.37,0,0,1,2.87-4.83c-.65-.73-1.3-1.42-1.92-2.09-.45.11-.91.23-1.38.38a14.5,14.5,0,0,0-8.36,6.53c.4.53.81,1,1.22,1.57.81-.83,1.92-1.92,3.69-3.46,1.11-1,2-1.66,2.69-1.27.85.49.42,2.38-.08,3.88A13.35,13.35,0,0,1,19,27.75c.64.72,1.26,1.41,1.89,2.07.47-.11,1-.24,1.46-.4A14.42,14.42,0,0,0,30.77,22.81Z"/><path class="cls-1" d="M12.41,16.52c-.29.57-.57,1.18-.85,1.81.74,1.05,1.51,2.1,2.29,3.14A15.79,15.79,0,0,1,23.5,14.6L23,14c-1.28-1.32-2.49-2.48-3.65-3.53l-1.12.72C15,13.29,13.64,14.15,12.41,16.52Z"/><path class="cls-2" d="M33.36,28.94c-1.33,2.56-2.82,3.51-6.08,5.58l-.83.54c8.53,7,15.38,8.54,17.39,8.22-.31-3.13-4.53-9.61-9.61-16.16C33.94,27.78,33.64,28.4,33.36,28.94Z"/><path class="cls-3" d="M43.85,43.36Z"/><path class="cls-3" d="M43.85,43.36v0Z"/><path class="cls-2" d="M11.7,16.17c1.32-2.56,2.8-3.52,6.06-5.61l.93-.6C10.47,2.72,5.08,1.85,2.56,2.22,3.38,5.44,6.77,11.46,11,17.57,11.25,17.07,11.48,16.6,11.7,16.17Z"/><path class="cls-1" d="M32.65,28.59c.35-.68.7-1.42,1-2.18-.77-1-1.56-2-2.35-2.93a15.78,15.78,0,0,1-9.84,7c1.48,1.51,2.92,2.85,4.33,4l1-.65C30.08,31.81,31.42,31,32.65,28.59Z"/></g></g></svg>