<svg version="1.1" xmlns="http://www.w3.org/2000/svg" xmlns:xlink="http://www.w3.org/1999/xlink" width="804" height="444"><defs/><g><text fill="#eeeeee" stroke="none" font-family="Arial" font-size="24px" font-style="normal" font-weight="normal" text-decoration="none" x="0" y="0">UNREGISTERED</text><text fill="#eeeeee" stroke="none" font-family="Arial" font-size="24px" font-style="normal" font-weight="normal" text-decoration="none" x="0" y="30">UNREGISTERED</text><text fill="#eeeeee" stroke="none" font-family="Arial" font-size="24px" font-style="normal" font-weight="normal" text-decoration="none" x="0" y="60">UNREGISTERED</text><text fill="#eeeeee" stroke="none" font-family="Arial" font-size="24px" font-style="normal" font-weight="normal" text-decoration="none" x="0" y="90">UNREGISTERED</text><text fill="#eeeeee" stroke="none" font-family="Arial" font-size="24px" font-style="normal" font-weight="normal" text-decoration="none" x="0" y="120">UNREGISTERED</text><text fill="#eeeeee" stroke="none" font-family="Arial" font-size="24px" font-style="normal" font-weight="normal" text-decoration="none" x="0" y="150">UNREGISTERED</text><text fill="#eeeeee" stroke="none" font-family="Arial" font-size="24px" font-style="normal" font-weight="normal" text-decoration="none" x="0" y="180">UNREGISTERED</text><text fill="#eeeeee" stroke="none" font-family="Arial" font-size="24px" font-style="normal" font-weight="normal" text-decoration="none" x="0" y="210">UNREGISTERED</text><text fill="#eeeeee" stroke="none" font-family="Arial" font-size="24px" font-style="normal" font-weight="normal" text-decoration="none" x="0" y="240">UNREGISTERED</text><text fill="#eeeeee" stroke="none" font-family="Arial" font-size="24px" font-style="normal" font-weight="normal" text-decoration="none" x="0" y="270">UNREGISTERED</text><text fill="#eeeeee" stroke="none" font-family="Arial" font-size="24px" font-style="normal" font-weight="normal" text-decoration="none" x="0" y="300">UNREGISTERED</text><text fill="#eeeeee" stroke="none" font-family="Arial" font-size="24px" font-style="normal" font-weight="normal" text-decoration="none" x="0" y="330">UNREGISTERED</text><text fill="#eeeeee" stroke="none" font-family="Arial" font-size="24px" font-style="normal" font-weight="normal" text-decoration="none" x="0" y="360">UNREGISTERED</text><text fill="#eeeeee" stroke="none" font-family="Arial" font-size="24px" font-style="normal" font-weight="normal" text-decoration="none" x="0" y="390">UNREGISTERED</text><text fill="#eeeeee" stroke="none" font-family="Arial" font-size="24px" font-style="normal" font-weight="normal" text-decoration="none" x="0" y="420">UNREGISTERED</text><text fill="#eeeeee" stroke="none" font-family="Arial" font-size="24px" font-style="normal" font-weight="normal" text-decoration="none" x="200" y="0">UNREGISTERED</text><text fill="#eeeeee" stroke="none" font-family="Arial" font-size="24px" font-style="normal" font-weight="normal" text-decoration="none" x="200" y="30">UNREGISTERED</text><text fill="#eeeeee" stroke="none" font-family="Arial" font-size="24px" font-style="normal" font-weight="normal" text-decoration="none" x="200" y="60">UNREGISTERED</text><text fill="#eeeeee" stroke="none" font-family="Arial" font-size="24px" font-style="normal" font-weight="normal" text-decoration="none" x="200" y="90">UNREGISTERED</text><text fill="#eeeeee" stroke="none" font-family="Arial" font-size="24px" font-style="normal" font-weight="normal" text-decoration="none" x="200" y="120">UNREGISTERED</text><text fill="#eeeeee" stroke="none" font-family="Arial" font-size="24px" font-style="normal" font-weight="normal" text-decoration="none" x="200" y="150">UNREGISTERED</text><text fill="#eeeeee" stroke="none" font-family="Arial" font-size="24px" font-style="normal" font-weight="normal" text-decoration="none" x="200" y="180">UNREGISTERED</text><text fill="#eeeeee" stroke="none" font-family="Arial" font-size="24px" font-style="normal" font-weight="normal" text-decoration="none" x="200" y="210">UNREGISTERED</text><text fill="#eeeeee" stroke="none" font-family="Arial" font-size="24px" font-style="normal" font-weight="normal" text-decoration="none" x="200" y="240">UNREGISTERED</text><text fill="#eeeeee" stroke="none" font-family="Arial" font-size="24px" font-style="normal" font-weight="normal" text-decoration="none" x="200" y="270">UNREGISTERED</text><text fill="#eeeeee" stroke="none" font-family="Arial" font-size="24px" font-style="normal" font-weight="normal" text-decoration="none" x="200" y="300">UNREGISTERED</text><text fill="#eeeeee" stroke="none" font-family="Arial" font-size="24px" font-style="normal" font-weight="normal" text-decoration="none" x="200" y="330">UNREGISTERED</text><text fill="#eeeeee" stroke="none" font-family="Arial" font-size="24px" font-style="normal" font-weight="normal" text-decoration="none" x="200" y="360">UNREGISTERED</text><text fill="#eeeeee" stroke="none" font-family="Arial" font-size="24px" font-style="normal" font-weight="normal" text-decoration="none" x="200" y="390">UNREGISTERED</text><text fill="#eeeeee" stroke="none" font-family="Arial" font-size="24px" font-style="normal" font-weight="normal" text-decoration="none" x="200" y="420">UNREGISTERED</text><text fill="#eeeeee" stroke="none" font-family="Arial" font-size="24px" font-style="normal" font-weight="normal" text-decoration="none" x="400" y="0">UNREGISTERED</text><text fill="#eeeeee" stroke="none" font-family="Arial" font-size="24px" font-style="normal" font-weight="normal" text-decoration="none" x="400" y="30">UNREGISTERED</text><text fill="#eeeeee" stroke="none" font-family="Arial" font-size="24px" font-style="normal" font-weight="normal" text-decoration="none" x="400" y="60">UNREGISTERED</text><text fill="#eeeeee" stroke="none" font-family="Arial" font-size="24px" font-style="normal" font-weight="normal" text-decoration="none" x="400" y="90">UNREGISTERED</text><text fill="#eeeeee" stroke="none" font-family="Arial" font-size="24px" font-style="normal" font-weight="normal" text-decoration="none" x="400" y="120">UNREGISTERED</text><text fill="#eeeeee" stroke="none" font-family="Arial" font-size="24px" font-style="normal" font-weight="normal" text-decoration="none" x="400" y="150">UNREGISTERED</text><text fill="#eeeeee" stroke="none" font-family="Arial" font-size="24px" font-style="normal" font-weight="normal" text-decoration="none" x="400" y="180">UNREGISTERED</text><text fill="#eeeeee" stroke="none" font-family="Arial" font-size="24px" font-style="normal" font-weight="normal" text-decoration="none" x="400" y="210">UNREGISTERED</text><text fill="#eeeeee" stroke="none" font-family="Arial" font-size="24px" font-style="normal" font-weight="normal" text-decoration="none" x="400" y="240">UNREGISTERED</text><text fill="#eeeeee" stroke="none" font-family="Arial" font-size="24px" font-style="normal" font-weight="normal" text-decoration="none" x="400" y="270">UNREGISTERED</text><text fill="#eeeeee" stroke="none" font-family="Arial" font-size="24px" font-style="normal" font-weight="normal" text-decoration="none" x="400" y="300">UNREGISTERED</text><text fill="#eeeeee" stroke="none" font-family="Arial" font-size="24px" font-style="normal" font-weight="normal" text-decoration="none" x="400" y="330">UNREGISTERED</text><text fill="#eeeeee" stroke="none" font-family="Arial" font-size="24px" font-style="normal" font-weight="normal" text-decoration="none" x="400" y="360">UNREGISTERED</text><text fill="#eeeeee" stroke="none" font-family="Arial" font-size="24px" font-style="normal" font-weight="normal" text-decoration="none" x="400" y="390">UNREGISTERED</text><text fill="#eeeeee" stroke="none" font-family="Arial" font-size="24px" font-style="normal" font-weight="normal" text-decoration="none" x="400" y="420">UNREGISTERED</text><text fill="#eeeeee" stroke="none" font-family="Arial" font-size="24px" font-style="normal" font-weight="normal" text-decoration="none" x="600" y="0">UNREGISTERED</text><text fill="#eeeeee" stroke="none" font-family="Arial" font-size="24px" font-style="normal" font-weight="normal" text-decoration="none" x="600" y="30">UNREGISTERED</text><text fill="#eeeeee" stroke="none" font-family="Arial" font-size="24px" font-style="normal" font-weight="normal" text-decoration="none" x="600" y="60">UNREGISTERED</text><text fill="#eeeeee" stroke="none" font-family="Arial" font-size="24px" font-style="normal" font-weight="normal" text-decoration="none" x="600" y="90">UNREGISTERED</text><text fill="#eeeeee" stroke="none" font-family="Arial" font-size="24px" font-style="normal" font-weight="normal" text-decoration="none" x="600" y="120">UNREGISTERED</text><text fill="#eeeeee" stroke="none" font-family="Arial" font-size="24px" font-style="normal" font-weight="normal" text-decoration="none" x="600" y="150">UNREGISTERED</text><text fill="#eeeeee" stroke="none" font-family="Arial" font-size="24px" font-style="normal" font-weight="normal" text-decoration="none" x="600" y="180">UNREGISTERED</text><text fill="#eeeeee" stroke="none" font-family="Arial" font-size="24px" font-style="normal" font-weight="normal" text-decoration="none" x="600" y="210">UNREGISTERED</text><text fill="#eeeeee" stroke="none" font-family="Arial" font-size="24px" font-style="normal" font-weight="normal" text-decoration="none" x="600" y="240">UNREGISTERED</text><text fill="#eeeeee" stroke="none" font-family="Arial" font-size="24px" font-style="normal" font-weight="normal" text-decoration="none" x="600" y="270">UNREGISTERED</text><text fill="#eeeeee" stroke="none" font-family="Arial" font-size="24px" font-style="normal" font-weight="normal" text-decoration="none" x="600" y="300">UNREGISTERED</text><text fill="#eeeeee" stroke="none" font-family="Arial" font-size="24px" font-style="normal" font-weight="normal" text-decoration="none" x="600" y="330">UNREGISTERED</text><text fill="#eeeeee" stroke="none" font-family="Arial" font-size="24px" font-style="normal" font-weight="normal" text-decoration="none" x="600" y="360">UNREGISTERED</text><text fill="#eeeeee" stroke="none" font-family="Arial" font-size="24px" font-style="normal" font-weight="normal" text-decoration="none" x="600" y="390">UNREGISTERED</text><text fill="#eeeeee" stroke="none" font-family="Arial" font-size="24px" font-style="normal" font-weight="normal" text-decoration="none" x="600" y="420">UNREGISTERED</text><text fill="#eeeeee" stroke="none" font-family="Arial" font-size="24px" font-style="normal" font-weight="normal" text-decoration="none" x="800" y="0">UNREGISTERED</text><text fill="#eeeeee" stroke="none" font-family="Arial" font-size="24px" font-style="normal" font-weight="normal" text-decoration="none" x="800" y="30">UNREGISTERED</text><text fill="#eeeeee" stroke="none" font-family="Arial" font-size="24px" font-style="normal" font-weight="normal" text-decoration="none" x="800" y="60">UNREGISTERED</text><text fill="#eeeeee" stroke="none" font-family="Arial" font-size="24px" font-style="normal" font-weight="normal" text-decoration="none" x="800" y="90">UNREGISTERED</text><text fill="#eeeeee" stroke="none" font-family="Arial" font-size="24px" font-style="normal" font-weight="normal" text-decoration="none" x="800" y="120">UNREGISTERED</text><text fill="#eeeeee" stroke="none" font-family="Arial" font-size="24px" font-style="normal" font-weight="normal" text-decoration="none" x="800" y="150">UNREGISTERED</text><text fill="#eeeeee" stroke="none" font-family="Arial" font-size="24px" font-style="normal" font-weight="normal" text-decoration="none" x="800" y="180">UNREGISTERED</text><text fill="#eeeeee" stroke="none" font-family="Arial" font-size="24px" font-style="normal" font-weight="normal" text-decoration="none" x="800" y="210">UNREGISTERED</text><text fill="#eeeeee" stroke="none" font-family="Arial" font-size="24px" font-style="normal" font-weight="normal" text-decoration="none" x="800" y="240">UNREGISTERED</text><text fill="#eeeeee" stroke="none" font-family="Arial" font-size="24px" font-style="normal" font-weight="normal" text-decoration="none" x="800" y="270">UNREGISTERED</text><text fill="#eeeeee" stroke="none" font-family="Arial" font-size="24px" font-style="normal" font-weight="normal" text-decoration="none" x="800" y="300">UNREGISTERED</text><text fill="#eeeeee" stroke="none" font-family="Arial" font-size="24px" font-style="normal" font-weight="normal" text-decoration="none" x="800" y="330">UNREGISTERED</text><text fill="#eeeeee" stroke="none" font-family="Arial" font-size="24px" font-style="normal" font-weight="normal" text-decoration="none" x="800" y="360">UNREGISTERED</text><text fill="#eeeeee" stroke="none" font-family="Arial" font-size="24px" font-style="normal" font-weight="normal" text-decoration="none" x="800" y="390">UNREGISTERED</text><text fill="#eeeeee" stroke="none" font-family="Arial" font-size="24px" font-style="normal" font-weight="normal" text-decoration="none" x="800" y="420">UNREGISTERED</text><g transform="translate(-398,-294) scale(1,1)"><rect fill="#C0C0C0" stroke="none" x="871" y="311" width="328" height="424" opacity="0.2"/></g><g transform="translate(-398,-294) scale(1,1)"><rect fill="#ffffff" stroke="none" x="864" y="304" width="328" height="424"/></g><g transform="translate(-398,-294) scale(1,1)"><path fill="none" stroke="#000000" d="M 864 304 L 1192 304 L 1192 728 L 864 728 L 864 304 Z Z" stroke-miterlimit="10"/></g><g transform="translate(-398,-294) scale(1,1)"><g><path fill="none" stroke="none"/><text fill="#000000" stroke="none" font-family="Arial" font-size="13px" font-style="normal" font-weight="bold" text-decoration="none" x="968.154296875" y="322">Maintenance Ticket</text></g></g><g transform="translate(-398,-294) scale(1,1)"><path fill="#C0C0C0" stroke="none" d="M 935 576 C 935 566.6111584 976.413656 559 1027.5 559 C 1078.586344 559 1120 566.6111584 1120 576 C 1120 585.3888416 1078.586344 593 1027.5 593 C 976.413656 593 935 585.3888416 935 576 Z" opacity="0.2"/></g><g transform="translate(-398,-294) scale(1,1)"><path fill="#ffffff" stroke="none" d="M 928 569 C 928 559.6111584 969.413656 552 1020.5 552 C 1071.586344 552 1113 559.6111584 1113 569 C 1113 578.3888416 1071.586344 586 1020.5 586 C 969.413656 586 928 578.3888416 928 569 Z"/></g><g transform="translate(-398,-294) scale(1,1)"><path fill="none" stroke="#000000" d="M 928 569 C 928 559.6111584 969.413656 552 1020.5 552 C 1071.586344 552 1113 559.6111584 1113 569 C 1113 578.3888416 1071.586344 586 1020.5 586 C 969.413656 586 928 578.3888416 928 569 Z" stroke-miterlimit="10"/></g><g transform="translate(-398,-294) scale(1,1)"><g><path fill="none" stroke="none"/><text fill="#000000" stroke="none" font-family="Arial" font-size="13px" font-style="normal" font-weight="bold" text-decoration="none" x="959.72119140625" y="574.5">S'attribuer un ticket</text></g></g><g transform="translate(-398,-294) scale(1,1)"><path fill="#C0C0C0" stroke="none" d="M 919 680 C 919 670.6111584 970.7111056 663 1034.5 663 C 1098.2888944000001 663 1150 670.6111584 1150 680 C 1150 689.3888416 1098.2888944000001 697 1034.5 697 C 970.7111056 697 919 689.3888416 919 680 Z" opacity="0.2"/></g><g transform="translate(-398,-294) scale(1,1)"><path fill="#ffffff" stroke="none" d="M 912 673 C 912 663.6111584 963.7111056 656 1027.5 656 C 1091.2888944000001 656 1143 663.6111584 1143 673 C 1143 682.3888416 1091.2888944000001 690 1027.5 690 C 963.7111056 690 912 682.3888416 912 673 Z"/></g><g transform="translate(-398,-294) scale(1,1)"><path fill="none" stroke="#000000" d="M 912 673 C 912 663.6111584 963.7111056 656 1027.5 656 C 1091.2888944000001 656 1143 663.6111584 1143 673 C 1143 682.3888416 1091.2888944000001 690 1027.5 690 C 963.7111056 690 912 682.3888416 912 673 Z" stroke-miterlimit="10"/></g><g transform="translate(-398,-294) scale(1,1)"><g><path fill="none" stroke="none"/><text fill="#000000" stroke="none" font-family="Arial" font-size="13px" font-style="normal" font-weight="bold" text-decoration="none" x="950.36962890625" y="678.5">Changer l'état d'un ticket</text></g></g><g transform="translate(-398,-294) scale(1,1)"><path fill="#C0C0C0" stroke="none" d="M 903 480 C 903 470.6111584 960.9791184000001 463 1032.5 463 C 1104.0208816 463 1162 470.6111584 1162 480 C 1162 489.3888416 1104.0208816 497 1032.5 497 C 960.9791184000001 497 903 489.3888416 903 480 Z" opacity="0.2"/></g><g transform="translate(-398,-294) scale(1,1)"><path fill="#ffffff" stroke="none" d="M 896 473 C 896 463.6111584 953.9791184000001 456 1025.5 456 C 1097.0208816 456 1155 463.6111584 1155 473 C 1155 482.3888416 1097.0208816 490 1025.5 490 C 953.9791184000001 490 896 482.3888416 896 473 Z"/></g><g transform="translate(-398,-294) scale(1,1)"><path fill="none" stroke="#000000" d="M 896 473 C 896 463.6111584 953.9791184000001 456 1025.5 456 C 1097.0208816 456 1155 463.6111584 1155 473 C 1155 482.3888416 1097.0208816 490 1025.5 490 C 953.9791184000001 490 896 482.3888416 896 473 Z" stroke-miterlimit="10"/></g><g transform="translate(-398,-294) scale(1,1)"><g><path fill="none" stroke="none"/><text fill="#000000" stroke="none" font-family="Arial" font-size="13px" font-style="normal" font-weight="bold" text-decoration="none" x="938.359375" y="478.5">Changer le statut d'un ticket</text></g></g><g transform="translate(-398,-294) scale(1,1)"><path fill="#C0C0C0" stroke="none" d="M 879 360 C 879 350.6111584 948.395856 343 1034 343 C 1119.604144 343 1189 350.6111584 1189 360 C 1189 369.3888416 1119.604144 377 1034 377 C 948.395856 377 879 369.3888416 879 360 Z" opacity="0.2"/></g><g transform="translate(-398,-294) scale(1,1)"><path fill="#ffffff" stroke="none" d="M 872 353 C 872 343.6111584 941.395856 336 1027 336 C 1112.604144 336 1182 343.6111584 1182 353 C 1182 362.3888416 1112.604144 370 1027 370 C 941.395856 370 872 362.3888416 872 353 Z"/></g><g transform="translate(-398,-294) scale(1,1)"><path fill="none" stroke="#000000" d="M 872 353 C 872 343.6111584 941.395856 336 1027 336 C 1112.604144 336 1182 343.6111584 1182 353 C 1182 362.3888416 1112.604144 370 1027 370 C 941.395856 370 872 362.3888416 872 353 Z" stroke-miterlimit="10"/></g><g transform="translate(-398,-294) scale(1,1)"><g><path fill="none" stroke="none"/><text fill="#000000" stroke="none" font-family="Arial" font-size="13px" font-style="normal" font-weight="bold" text-decoration="none" x="921.90185546875" y="358.5">Attribuer un ticket à un technicien</text></g></g><g transform="translate(-398,-294) scale(1,1)"><path fill="#ffffff" stroke="none" d="M 461.29191867897725 593.6800000000001 C 461.29191867897725 588.8861679360001 465.17776100392274 585 469.97119140625 585 C 474.76462180857726 585 478.65046413352275 588.8861679360001 478.65046413352275 593.6800000000001 C 478.65046413352275 598.473832064 474.76462180857726 602.36 469.97119140625 602.36 C 465.17776100392274 602.36 461.29191867897725 598.473832064 461.29191867897725 593.6800000000001 Z"/></g><g transform="translate(-398,-294) scale(1,1)"><path fill="none" stroke="#000000" d="M 461.29191867897725 593.6800000000001 C 461.29191867897725 588.8861679360001 465.17776100392274 585 469.97119140625 585 C 474.76462180857726 585 478.65046413352275 588.8861679360001 478.65046413352275 593.6800000000001 C 478.65046413352275 598.473832064 474.76462180857726 602.36 469.97119140625 602.36 C 465.17776100392274 602.36 461.29191867897725 598.473832064 461.29191867897725 593.6800000000001 Z" stroke-miterlimit="10"/></g><g transform="translate(-398,-294) scale(1,1)"><path fill="none" stroke="#000000" d="M 469.97119140625 602.36 L 469.97119140625 619.64" stroke-miterlimit="10"/></g><g transform="translate(-398,-294) scale(1,1)"><path fill="none" stroke="#000000" d="M 460.78137322443183 608.84 L 479.16100958806817 608.84" stroke-miterlimit="10"/></g><g transform="translate(-398,-294) scale(1,1)"><path fill="none" stroke="#000000" d="M 469.97119140625 619.64 L 457.20755504261365 637" stroke-miterlimit="10"/></g><g transform="translate(-398,-294) scale(1,1)"><path fill="none" stroke="#000000" d="M 469.97119140625 619.64 L 482.73482776988635 637" stroke-miterlimit="10"/></g><g transform="translate(-398,-294) scale(1,1)"><g><path fill="none" stroke="none"/><text fill="#000000" stroke="none" font-family="Arial" font-size="13px" font-style="normal" font-weight="bold" text-decoration="none" x="436.5" y="656">Technicien</text></g></g><g transform="translate(-398,-294) scale(1,1)"><path fill="#ffffff" stroke="none" d="M 465.45964328835225 409.68 C 465.45964328835225 404.886167936 469.34548561329774 401 474.138916015625 401 C 478.93234641795226 401 482.81818874289775 404.886167936 482.81818874289775 409.68 C 482.81818874289775 414.473832064 478.93234641795226 418.36 474.138916015625 418.36 C 469.34548561329774 418.36 465.45964328835225 414.473832064 465.45964328835225 409.68 Z"/></g><g transform="translate(-398,-294) scale(1,1)"><path fill="none" stroke="#000000" d="M 465.45964328835225 409.68 C 465.45964328835225 404.886167936 469.34548561329774 401 474.138916015625 401 C 478.93234641795226 401 482.81818874289775 404.886167936 482.81818874289775 409.68 C 482.81818874289775 414.473832064 478.93234641795226 418.36 474.138916015625 418.36 C 469.34548561329774 418.36 465.45964328835225 414.473832064 465.45964328835225 409.68 Z" stroke-miterlimit="10"/></g><g transform="translate(-398,-294) scale(1,1)"><path fill="none" stroke="#000000" d="M 474.138916015625 418.36 L 474.138916015625 435.64" stroke-miterlimit="10"/></g><g transform="translate(-398,-294) scale(1,1)"><path fill="none" stroke="#000000" d="M 464.94909783380683 424.84 L 483.32873419744317 424.84" stroke-miterlimit="10"/></g><g transform="translate(-398,-294) scale(1,1)"><path fill="none" stroke="#000000" d="M 474.138916015625 435.64 L 461.37527965198865 453" stroke-miterlimit="10"/></g><g transform="translate(-398,-294) scale(1,1)"><path fill="none" stroke="#000000" d="M 474.138916015625 435.64 L 486.90255237926135 453" stroke-miterlimit="10"/></g><g transform="translate(-398,-294) scale(1,1)"><g><path fill="none" stroke="none"/><text fill="#000000" stroke="none" font-family="Arial" font-size="13px" font-style="normal" font-weight="bold" text-decoration="none" x="412.5" y="472">Administrateur Web</text></g></g><g transform="translate(-398,-294) scale(1,1)"><path fill="none" stroke="#000000" d="M 509 616 L 792 568 L 927 569" stroke-miterlimit="10"/></g><g transform="translate(-398,-294) scale(1,1)"><path fill="none" stroke="#000000" d="M 541 421 L 800 352 L 871 352" stroke-miterlimit="10"/></g><g transform="translate(-398,-294) scale(1,1)"><path fill="none" stroke="#000000" d="M 541 446 L 800 472 L 895 472" stroke-miterlimit="10"/></g><g transform="translate(-398,-294) scale(1,1)"><path fill="none" stroke="#000000" d="M 509 629 L 800 672 L 911 672" stroke-miterlimit="10"/></g></g></svg>