<svg version="1.1" xmlns="http://www.w3.org/2000/svg" xmlns:xlink="http://www.w3.org/1999/xlink" width="588" height="212"><defs/><g><text fill="#eeeeee" stroke="none" font-family="Arial" font-size="24px" font-style="normal" font-weight="normal" text-decoration="none" x="0" y="0">UNREGISTERED</text><text fill="#eeeeee" stroke="none" font-family="Arial" font-size="24px" font-style="normal" font-weight="normal" text-decoration="none" x="0" y="30">UNREGISTERED</text><text fill="#eeeeee" stroke="none" font-family="Arial" font-size="24px" font-style="normal" font-weight="normal" text-decoration="none" x="0" y="60">UNREGISTERED</text><text fill="#eeeeee" stroke="none" font-family="Arial" font-size="24px" font-style="normal" font-weight="normal" text-decoration="none" x="0" y="90">UNREGISTERED</text><text fill="#eeeeee" stroke="none" font-family="Arial" font-size="24px" font-style="normal" font-weight="normal" text-decoration="none" x="0" y="120">UNREGISTERED</text><text fill="#eeeeee" stroke="none" font-family="Arial" font-size="24px" font-style="normal" font-weight="normal" text-decoration="none" x="0" y="150">UNREGISTERED</text><text fill="#eeeeee" stroke="none" font-family="Arial" font-size="24px" font-style="normal" font-weight="normal" text-decoration="none" x="0" y="180">UNREGISTERED</text><text fill="#eeeeee" stroke="none" font-family="Arial" font-size="24px" font-style="normal" font-weight="normal" text-decoration="none" x="0" y="210">UNREGISTERED</text><text fill="#eeeeee" stroke="none" font-family="Arial" font-size="24px" font-style="normal" font-weight="normal" text-decoration="none" x="200" y="0">UNREGISTERED</text><text fill="#eeeeee" stroke="none" font-family="Arial" font-size="24px" font-style="normal" font-weight="normal" text-decoration="none" x="200" y="30">UNREGISTERED</text><text fill="#eeeeee" stroke="none" font-family="Arial" font-size="24px" font-style="normal" font-weight="normal" text-decoration="none" x="200" y="60">UNREGISTERED</text><text fill="#eeeeee" stroke="none" font-family="Arial" font-size="24px" font-style="normal" font-weight="normal" text-decoration="none" x="200" y="90">UNREGISTERED</text><text fill="#eeeeee" stroke="none" font-family="Arial" font-size="24px" font-style="normal" font-weight="normal" text-decoration="none" x="200" y="120">UNREGISTERED</text><text fill="#eeeeee" stroke="none" font-family="Arial" font-size="24px" font-style="normal" font-weight="normal" text-decoration="none" x="200" y="150">UNREGISTERED</text><text fill="#eeeeee" stroke="none" font-family="Arial" font-size="24px" font-style="normal" font-weight="normal" text-decoration="none" x="200" y="180">UNREGISTERED</text><text fill="#eeeeee" stroke="none" font-family="Arial" font-size="24px" font-style="normal" font-weight="normal" text-decoration="none" x="200" y="210">UNREGISTERED</text><text fill="#eeeeee" stroke="none" font-family="Arial" font-size="24px" font-style="normal" font-weight="normal" text-decoration="none" x="400" y="0">UNREGISTERED</text><text fill="#eeeeee" stroke="none" font-family="Arial" font-size="24px" font-style="normal" font-weight="normal" text-decoration="none" x="400" y="30">UNREGISTERED</text><text fill="#eeeeee" stroke="none" font-family="Arial" font-size="24px" font-style="normal" font-weight="normal" text-decoration="none" x="400" y="60">UNREGISTERED</text><text fill="#eeeeee" stroke="none" font-family="Arial" font-size="24px" font-style="normal" font-weight="normal" text-decoration="none" x="400" y="90">UNREGISTERED</text><text fill="#eeeeee" stroke="none" font-family="Arial" font-size="24px" font-style="normal" font-weight="normal" text-decoration="none" x="400" y="120">UNREGISTERED</text><text fill="#eeeeee" stroke="none" font-family="Arial" font-size="24px" font-style="normal" font-weight="normal" text-decoration="none" x="400" y="150">UNREGISTERED</text><text fill="#eeeeee" stroke="none" font-family="Arial" font-size="24px" font-style="normal" font-weight="normal" text-decoration="none" x="400" y="180">UNREGISTERED</text><text fill="#eeeeee" stroke="none" font-family="Arial" font-size="24px" font-style="normal" font-weight="normal" text-decoration="none" x="400" y="210">UNREGISTERED</text><g transform="translate(-366,-302) scale(1,1)"><rect fill="#C0C0C0" stroke="none" x="687" y="319" width="264" height="192" opacity="0.2"/></g><g transform="translate(-366,-302) scale(1,1)"><rect fill="#ffffff" stroke="none" x="680" y="312" width="264" height="192"/></g><g transform="translate(-366,-302) scale(1,1)"><path fill="none" stroke="#000000" d="M 680 312 L 944 312 L 944 504 L 680 504 L 680 312 Z Z" stroke-miterlimit="10"/></g><g transform="translate(-366,-302) scale(1,1)"><g><path fill="none" stroke="none"/><text fill="#000000" stroke="none" font-family="Arial" font-size="13px" font-style="normal" font-weight="bold" text-decoration="none" x="772.260498046875" y="330">Gérer Libellé</text></g></g><g transform="translate(-366,-302) scale(1,1)"><path fill="#ffffff" stroke="none" d="M 446.59611789772725 409.68 C 446.59611789772725 404.886167936 450.48196022267274 401 455.275390625 401 C 460.06882102732726 401 463.95466335227275 404.886167936 463.95466335227275 409.68 C 463.95466335227275 414.473832064 460.06882102732726 418.36 455.275390625 418.36 C 450.48196022267274 418.36 446.59611789772725 414.473832064 446.59611789772725 409.68 Z"/></g><g transform="translate(-366,-302) scale(1,1)"><path fill="none" stroke="#000000" d="M 446.59611789772725 409.68 C 446.59611789772725 404.886167936 450.48196022267274 401 455.275390625 401 C 460.06882102732726 401 463.95466335227275 404.886167936 463.95466335227275 409.68 C 463.95466335227275 414.473832064 460.06882102732726 418.36 455.275390625 418.36 C 450.48196022267274 418.36 446.59611789772725 414.473832064 446.59611789772725 409.68 Z" stroke-miterlimit="10"/></g><g transform="translate(-366,-302) scale(1,1)"><path fill="none" stroke="#000000" d="M 455.275390625 418.36 L 455.275390625 435.64" stroke-miterlimit="10"/></g><g transform="translate(-366,-302) scale(1,1)"><path fill="none" stroke="#000000" d="M 446.08557244318183 424.84 L 464.46520880681817 424.84" stroke-miterlimit="10"/></g><g transform="translate(-366,-302) scale(1,1)"><path fill="none" stroke="#000000" d="M 455.275390625 435.64 L 442.51175426136365 453" stroke-miterlimit="10"/></g><g transform="translate(-366,-302) scale(1,1)"><path fill="none" stroke="#000000" d="M 455.275390625 435.64 L 468.03902698863635 453" stroke-miterlimit="10"/></g><g transform="translate(-366,-302) scale(1,1)"><g><path fill="none" stroke="none"/><text fill="#000000" stroke="none" font-family="Arial" font-size="13px" font-style="normal" font-weight="bold" text-decoration="none" x="393.636474609375" y="472">Administrateur Web</text></g></g><g transform="translate(-366,-302) scale(1,1)"><path fill="#C0C0C0" stroke="none" d="M 743 368 C 743 358.6111584 779.2649312 351 824 351 C 868.7350688 351 905 358.6111584 905 368 C 905 377.3888416 868.7350688 385 824 385 C 779.2649312 385 743 377.3888416 743 368 Z" opacity="0.2"/></g><g transform="translate(-366,-302) scale(1,1)"><path fill="#ffffff" stroke="none" d="M 736 361 C 736 351.6111584 772.2649312 344 817 344 C 861.7350688 344 898 351.6111584 898 361 C 898 370.3888416 861.7350688 378 817 378 C 772.2649312 378 736 370.3888416 736 361 Z"/></g><g transform="translate(-366,-302) scale(1,1)"><path fill="none" stroke="#000000" d="M 736 361 C 736 351.6111584 772.2649312 344 817 344 C 861.7350688 344 898 351.6111584 898 361 C 898 370.3888416 861.7350688 378 817 378 C 772.2649312 378 736 370.3888416 736 361 Z" stroke-miterlimit="10"/></g><g transform="translate(-366,-302) scale(1,1)"><g><path fill="none" stroke="none"/><text fill="#000000" stroke="none" font-family="Arial" font-size="13px" font-style="normal" font-weight="bold" text-decoration="none" x="764.273193359375" y="366.5">Ajouter un libellé</text></g></g><g transform="translate(-366,-302) scale(1,1)"><path fill="#C0C0C0" stroke="none" d="M 735 416 C 735 406.6111584 772.8319344 399 819.5 399 C 866.1680656 399 904 406.6111584 904 416 C 904 425.3888416 866.1680656 433 819.5 433 C 772.8319344 433 735 425.3888416 735 416 Z" opacity="0.2"/></g><g transform="translate(-366,-302) scale(1,1)"><path fill="#ffffff" stroke="none" d="M 728 409 C 728 399.6111584 765.8319344 392 812.5 392 C 859.1680656 392 897 399.6111584 897 409 C 897 418.3888416 859.1680656 426 812.5 426 C 765.8319344 426 728 418.3888416 728 409 Z"/></g><g transform="translate(-366,-302) scale(1,1)"><path fill="none" stroke="#000000" d="M 728 409 C 728 399.6111584 765.8319344 392 812.5 392 C 859.1680656 392 897 399.6111584 897 409 C 897 418.3888416 859.1680656 426 812.5 426 C 765.8319344 426 728 418.3888416 728 409 Z" stroke-miterlimit="10"/></g><g transform="translate(-366,-302) scale(1,1)"><g><path fill="none" stroke="none"/><text fill="#000000" stroke="none" font-family="Arial" font-size="13px" font-style="normal" font-weight="bold" text-decoration="none" x="757.246826171875" y="414.5">Modifier un libellé</text></g></g><g transform="translate(-366,-302) scale(1,1)"><path fill="#C0C0C0" stroke="none" d="M 719 464 C 719 454.6111584 761.3090864 447 813.5 447 C 865.6909136 447 908 454.6111584 908 464 C 908 473.3888416 865.6909136 481 813.5 481 C 761.3090864 481 719 473.3888416 719 464 Z" opacity="0.2"/></g><g transform="translate(-366,-302) scale(1,1)"><path fill="#ffffff" stroke="none" d="M 712 457 C 712 447.6111584 754.3090864 440 806.5 440 C 858.6909136 440 901 447.6111584 901 457 C 901 466.3888416 858.6909136 474 806.5 474 C 754.3090864 474 712 466.3888416 712 457 Z"/></g><g transform="translate(-366,-302) scale(1,1)"><path fill="none" stroke="#000000" d="M 712 457 C 712 447.6111584 754.3090864 440 806.5 440 C 858.6909136 440 901 447.6111584 901 457 C 901 466.3888416 858.6909136 474 806.5 474 C 754.3090864 474 712 466.3888416 712 457 Z" stroke-miterlimit="10"/></g><g transform="translate(-366,-302) scale(1,1)"><g><path fill="none" stroke="none"/><text fill="#000000" stroke="none" font-family="Arial" font-size="13px" font-style="normal" font-weight="bold" text-decoration="none" x="744.016845703125" y="462.5">Supprimer un libellé</text></g></g><g transform="translate(-366,-302) scale(1,1)"><path fill="none" stroke="#000000" d="M 532 399 L 536 397 L 640 360 L 735 361" stroke-miterlimit="10"/></g><g transform="translate(-366,-302) scale(1,1)"><path fill="none" stroke="#000000" d="M 536 426 L 640 408 L 727 409" stroke-miterlimit="10"/></g><g transform="translate(-366,-302) scale(1,1)"><path fill="none" stroke="#000000" d="M 536 446 L 640 456 L 711 456" stroke-miterlimit="10"/></g></g></svg>