<svg version="1.1" xmlns="http://www.w3.org/2000/svg" xmlns:xlink="http://www.w3.org/1999/xlink" width="612" height="172"><defs/><g><text fill="#eeeeee" stroke="none" font-family="Arial" font-size="24px" font-style="normal" font-weight="normal" text-decoration="none" x="0" y="0">UNREGISTERED</text><text fill="#eeeeee" stroke="none" font-family="Arial" font-size="24px" font-style="normal" font-weight="normal" text-decoration="none" x="0" y="30">UNREGISTERED</text><text fill="#eeeeee" stroke="none" font-family="Arial" font-size="24px" font-style="normal" font-weight="normal" text-decoration="none" x="0" y="60">UNREGISTERED</text><text fill="#eeeeee" stroke="none" font-family="Arial" font-size="24px" font-style="normal" font-weight="normal" text-decoration="none" x="0" y="90">UNREGISTERED</text><text fill="#eeeeee" stroke="none" font-family="Arial" font-size="24px" font-style="normal" font-weight="normal" text-decoration="none" x="0" y="120">UNREGISTERED</text><text fill="#eeeeee" stroke="none" font-family="Arial" font-size="24px" font-style="normal" font-weight="normal" text-decoration="none" x="0" y="150">UNREGISTERED</text><text fill="#eeeeee" stroke="none" font-family="Arial" font-size="24px" font-style="normal" font-weight="normal" text-decoration="none" x="200" y="0">UNREGISTERED</text><text fill="#eeeeee" stroke="none" font-family="Arial" font-size="24px" font-style="normal" font-weight="normal" text-decoration="none" x="200" y="30">UNREGISTERED</text><text fill="#eeeeee" stroke="none" font-family="Arial" font-size="24px" font-style="normal" font-weight="normal" text-decoration="none" x="200" y="60">UNREGISTERED</text><text fill="#eeeeee" stroke="none" font-family="Arial" font-size="24px" font-style="normal" font-weight="normal" text-decoration="none" x="200" y="90">UNREGISTERED</text><text fill="#eeeeee" stroke="none" font-family="Arial" font-size="24px" font-style="normal" font-weight="normal" text-decoration="none" x="200" y="120">UNREGISTERED</text><text fill="#eeeeee" stroke="none" font-family="Arial" font-size="24px" font-style="normal" font-weight="normal" text-decoration="none" x="200" y="150">UNREGISTERED</text><text fill="#eeeeee" stroke="none" font-family="Arial" font-size="24px" font-style="normal" font-weight="normal" text-decoration="none" x="400" y="0">UNREGISTERED</text><text fill="#eeeeee" stroke="none" font-family="Arial" font-size="24px" font-style="normal" font-weight="normal" text-decoration="none" x="400" y="30">UNREGISTERED</text><text fill="#eeeeee" stroke="none" font-family="Arial" font-size="24px" font-style="normal" font-weight="normal" text-decoration="none" x="400" y="60">UNREGISTERED</text><text fill="#eeeeee" stroke="none" font-family="Arial" font-size="24px" font-style="normal" font-weight="normal" text-decoration="none" x="400" y="90">UNREGISTERED</text><text fill="#eeeeee" stroke="none" font-family="Arial" font-size="24px" font-style="normal" font-weight="normal" text-decoration="none" x="400" y="120">UNREGISTERED</text><text fill="#eeeeee" stroke="none" font-family="Arial" font-size="24px" font-style="normal" font-weight="normal" text-decoration="none" x="400" y="150">UNREGISTERED</text><text fill="#eeeeee" stroke="none" font-family="Arial" font-size="24px" font-style="normal" font-weight="normal" text-decoration="none" x="600" y="0">UNREGISTERED</text><text fill="#eeeeee" stroke="none" font-family="Arial" font-size="24px" font-style="normal" font-weight="normal" text-decoration="none" x="600" y="30">UNREGISTERED</text><text fill="#eeeeee" stroke="none" font-family="Arial" font-size="24px" font-style="normal" font-weight="normal" text-decoration="none" x="600" y="60">UNREGISTERED</text><text fill="#eeeeee" stroke="none" font-family="Arial" font-size="24px" font-style="normal" font-weight="normal" text-decoration="none" x="600" y="90">UNREGISTERED</text><text fill="#eeeeee" stroke="none" font-family="Arial" font-size="24px" font-style="normal" font-weight="normal" text-decoration="none" x="600" y="120">UNREGISTERED</text><text fill="#eeeeee" stroke="none" font-family="Arial" font-size="24px" font-style="normal" font-weight="normal" text-decoration="none" x="600" y="150">UNREGISTERED</text><g transform="translate(-350,-382) scale(1,1)"><rect fill="#C0C0C0" stroke="none" x="647" y="399" width="312" height="152" opacity="0.2"/></g><g transform="translate(-350,-382) scale(1,1)"><rect fill="#ffffff" stroke="none" x="640" y="392" width="312" height="152"/></g><g transform="translate(-350,-382) scale(1,1)"><path fill="none" stroke="#000000" d="M 640 392 L 952 392 L 952 544 L 640 544 L 640 392 Z Z" stroke-miterlimit="10"/></g><g transform="translate(-350,-382) scale(1,1)"><g><path fill="none" stroke="none"/><text fill="#000000" stroke="none" font-family="Arial" font-size="13px" font-style="normal" font-weight="bold" text-decoration="none" x="712.92822265625" y="410">Gestion compte technicien</text></g></g><g transform="translate(-350,-382) scale(1,1)"><path fill="#C0C0C0" stroke="none" d="M 663 450.5 C 663 435.312168 726.3517008 423 804.5 423 C 882.6482992 423 946 435.312168 946 450.5 C 946 465.687832 882.6482992 478 804.5 478 C 726.3517008 478 663 465.687832 663 450.5 Z" opacity="0.2"/></g><g transform="translate(-350,-382) scale(1,1)"><path fill="#ffffff" stroke="none" d="M 656 443.5 C 656 428.312168 719.3517008 416 797.5 416 C 875.6482992 416 939 428.312168 939 443.5 C 939 458.687832 875.6482992 471 797.5 471 C 719.3517008 471 656 458.687832 656 443.5 Z"/></g><g transform="translate(-350,-382) scale(1,1)"><path fill="none" stroke="#000000" d="M 656 443.5 C 656 428.312168 719.3517008 416 797.5 416 C 875.6482992 416 939 428.312168 939 443.5 C 939 458.687832 875.6482992 471 797.5 471 C 719.3517008 471 656 458.687832 656 443.5 Z" stroke-miterlimit="10"/></g><g transform="translate(-350,-382) scale(1,1)"><g><path fill="none" stroke="none"/><text fill="#000000" stroke="none" font-family="Arial" font-size="13px" font-style="normal" font-weight="bold" text-decoration="none" x="711.8955078125" y="441.5">Créer un compte technicien</text></g></g><g transform="translate(-350,-382) scale(1,1)"><g><path fill="none" stroke="none"/><text fill="#000000" stroke="none" font-family="Arial" font-size="13px" font-style="normal" font-weight="normal" text-decoration="none" x="701.767822265625" y="456.5">(from Gestion compte technicien)</text></g></g><g transform="translate(-350,-382) scale(1,1)"><path fill="#C0C0C0" stroke="none" d="M 655 514.5 C 655 499.312168 721.9334224 487 804.5 487 C 887.0665776 487 954 499.312168 954 514.5 C 954 529.687832 887.0665776 542 804.5 542 C 721.9334224 542 655 529.687832 655 514.5 Z" opacity="0.2"/></g><g transform="translate(-350,-382) scale(1,1)"><path fill="#ffffff" stroke="none" d="M 648 507.5 C 648 492.312168 714.9334224 480 797.5 480 C 880.0665776 480 947 492.312168 947 507.5 C 947 522.687832 880.0665776 535 797.5 535 C 714.9334224 535 648 522.687832 648 507.5 Z"/></g><g transform="translate(-350,-382) scale(1,1)"><path fill="none" stroke="#000000" d="M 648 507.5 C 648 492.312168 714.9334224 480 797.5 480 C 880.0665776 480 947 492.312168 947 507.5 C 947 522.687832 880.0665776 535 797.5 535 C 714.9334224 535 648 522.687832 648 507.5 Z" stroke-miterlimit="10"/></g><g transform="translate(-350,-382) scale(1,1)"><g><path fill="none" stroke="none"/><text fill="#000000" stroke="none" font-family="Arial" font-size="13px" font-style="normal" font-weight="bold" text-decoration="none" x="696.372314453125" y="505.5">Supprimer un compte technicien</text></g></g><g transform="translate(-350,-382) scale(1,1)"><g><path fill="none" stroke="none"/><text fill="#000000" stroke="none" font-family="Arial" font-size="13px" font-style="normal" font-weight="normal" text-decoration="none" x="701.767822265625" y="520.5">(from Gestion compte technicien)</text></g></g><g transform="translate(-350,-382) scale(1,1)"><path fill="#ffffff" stroke="none" d="M 430.59611789772725 441.68 C 430.59611789772725 436.886167936 434.48196022267274 433 439.275390625 433 C 444.06882102732726 433 447.95466335227275 436.886167936 447.95466335227275 441.68 C 447.95466335227275 446.473832064 444.06882102732726 450.36 439.275390625 450.36 C 434.48196022267274 450.36 430.59611789772725 446.473832064 430.59611789772725 441.68 Z"/></g><g transform="translate(-350,-382) scale(1,1)"><path fill="none" stroke="#000000" d="M 430.59611789772725 441.68 C 430.59611789772725 436.886167936 434.48196022267274 433 439.275390625 433 C 444.06882102732726 433 447.95466335227275 436.886167936 447.95466335227275 441.68 C 447.95466335227275 446.473832064 444.06882102732726 450.36 439.275390625 450.36 C 434.48196022267274 450.36 430.59611789772725 446.473832064 430.59611789772725 441.68 Z" stroke-miterlimit="10"/></g><g transform="translate(-350,-382) scale(1,1)"><path fill="none" stroke="#000000" d="M 439.275390625 450.36 L 439.275390625 467.64" stroke-miterlimit="10"/></g><g transform="translate(-350,-382) scale(1,1)"><path fill="none" stroke="#000000" d="M 430.08557244318183 456.84 L 448.46520880681817 456.84" stroke-miterlimit="10"/></g><g transform="translate(-350,-382) scale(1,1)"><path fill="none" stroke="#000000" d="M 439.275390625 467.64 L 426.51175426136365 485" stroke-miterlimit="10"/></g><g transform="translate(-350,-382) scale(1,1)"><path fill="none" stroke="#000000" d="M 439.275390625 467.64 L 452.03902698863635 485" stroke-miterlimit="10"/></g><g transform="translate(-350,-382) scale(1,1)"><g><path fill="none" stroke="none"/><text fill="#000000" stroke="none" font-family="Arial" font-size="13px" font-style="normal" font-weight="bold" text-decoration="none" x="377.636474609375" y="504">Administrateur Web</text></g></g><g transform="translate(-350,-382) scale(1,1)"><path fill="none" stroke="#000000" d="M 520 456 L 608 440 L 655 441" stroke-miterlimit="10"/></g><g transform="translate(-350,-382) scale(1,1)"><path fill="none" stroke="#000000" d="M 520 493 L 592 512 L 647 511" stroke-miterlimit="10"/></g></g></svg>