<svg version="1.1" xmlns="http://www.w3.org/2000/svg" xmlns:xlink="http://www.w3.org/1999/xlink" width="539" height="269"><defs/><g><text fill="#eeeeee" stroke="none" font-family="Arial" font-size="24px" font-style="normal" font-weight="normal" text-decoration="none" x="0" y="0">UNREGISTERED</text><text fill="#eeeeee" stroke="none" font-family="Arial" font-size="24px" font-style="normal" font-weight="normal" text-decoration="none" x="0" y="30">UNREGISTERED</text><text fill="#eeeeee" stroke="none" font-family="Arial" font-size="24px" font-style="normal" font-weight="normal" text-decoration="none" x="0" y="60">UNREGISTERED</text><text fill="#eeeeee" stroke="none" font-family="Arial" font-size="24px" font-style="normal" font-weight="normal" text-decoration="none" x="0" y="90">UNREGISTERED</text><text fill="#eeeeee" stroke="none" font-family="Arial" font-size="24px" font-style="normal" font-weight="normal" text-decoration="none" x="0" y="120">UNREGISTERED</text><text fill="#eeeeee" stroke="none" font-family="Arial" font-size="24px" font-style="normal" font-weight="normal" text-decoration="none" x="0" y="150">UNREGISTERED</text><text fill="#eeeeee" stroke="none" font-family="Arial" font-size="24px" font-style="normal" font-weight="normal" text-decoration="none" x="0" y="180">UNREGISTERED</text><text fill="#eeeeee" stroke="none" font-family="Arial" font-size="24px" font-style="normal" font-weight="normal" text-decoration="none" x="0" y="210">UNREGISTERED</text><text fill="#eeeeee" stroke="none" font-family="Arial" font-size="24px" font-style="normal" font-weight="normal" text-decoration="none" x="0" y="240">UNREGISTERED</text><text fill="#eeeeee" stroke="none" font-family="Arial" font-size="24px" font-style="normal" font-weight="normal" text-decoration="none" x="200" y="0">UNREGISTERED</text><text fill="#eeeeee" stroke="none" font-family="Arial" font-size="24px" font-style="normal" font-weight="normal" text-decoration="none" x="200" y="30">UNREGISTERED</text><text fill="#eeeeee" stroke="none" font-family="Arial" font-size="24px" font-style="normal" font-weight="normal" text-decoration="none" x="200" y="60">UNREGISTERED</text><text fill="#eeeeee" stroke="none" font-family="Arial" font-size="24px" font-style="normal" font-weight="normal" text-decoration="none" x="200" y="90">UNREGISTERED</text><text fill="#eeeeee" stroke="none" font-family="Arial" font-size="24px" font-style="normal" font-weight="normal" text-decoration="none" x="200" y="120">UNREGISTERED</text><text fill="#eeeeee" stroke="none" font-family="Arial" font-size="24px" font-style="normal" font-weight="normal" text-decoration="none" x="200" y="150">UNREGISTERED</text><text fill="#eeeeee" stroke="none" font-family="Arial" font-size="24px" font-style="normal" font-weight="normal" text-decoration="none" x="200" y="180">UNREGISTERED</text><text fill="#eeeeee" stroke="none" font-family="Arial" font-size="24px" font-style="normal" font-weight="normal" text-decoration="none" x="200" y="210">UNREGISTERED</text><text fill="#eeeeee" stroke="none" font-family="Arial" font-size="24px" font-style="normal" font-weight="normal" text-decoration="none" x="200" y="240">UNREGISTERED</text><text fill="#eeeeee" stroke="none" font-family="Arial" font-size="24px" font-style="normal" font-weight="normal" text-decoration="none" x="400" y="0">UNREGISTERED</text><text fill="#eeeeee" stroke="none" font-family="Arial" font-size="24px" font-style="normal" font-weight="normal" text-decoration="none" x="400" y="30">UNREGISTERED</text><text fill="#eeeeee" stroke="none" font-family="Arial" font-size="24px" font-style="normal" font-weight="normal" text-decoration="none" x="400" y="60">UNREGISTERED</text><text fill="#eeeeee" stroke="none" font-family="Arial" font-size="24px" font-style="normal" font-weight="normal" text-decoration="none" x="400" y="90">UNREGISTERED</text><text fill="#eeeeee" stroke="none" font-family="Arial" font-size="24px" font-style="normal" font-weight="normal" text-decoration="none" x="400" y="120">UNREGISTERED</text><text fill="#eeeeee" stroke="none" font-family="Arial" font-size="24px" font-style="normal" font-weight="normal" text-decoration="none" x="400" y="150">UNREGISTERED</text><text fill="#eeeeee" stroke="none" font-family="Arial" font-size="24px" font-style="normal" font-weight="normal" text-decoration="none" x="400" y="180">UNREGISTERED</text><text fill="#eeeeee" stroke="none" font-family="Arial" font-size="24px" font-style="normal" font-weight="normal" text-decoration="none" x="400" y="210">UNREGISTERED</text><text fill="#eeeeee" stroke="none" font-family="Arial" font-size="24px" font-style="normal" font-weight="normal" text-decoration="none" x="400" y="240">UNREGISTERED</text><g transform="translate(-426,-286) scale(1,1)"><path fill="#C0C0C0" stroke="none" d="M 775 432 C 775 422.6111584 816.8613712 415 868.5 415 C 920.1386288 415 962 422.6111584 962 432 C 962 441.3888416 920.1386288 449 868.5 449 C 816.8613712 449 775 441.3888416 775 432 Z" opacity="0.2"/></g><g transform="translate(-426,-286) scale(1,1)"><path fill="#ffffff" stroke="none" d="M 768 425 C 768 415.6111584 809.8613712 408 861.5 408 C 913.1386288 408 955 415.6111584 955 425 C 955 434.3888416 913.1386288 442 861.5 442 C 809.8613712 442 768 434.3888416 768 425 Z"/></g><g transform="translate(-426,-286) scale(1,1)"><path fill="none" stroke="#000000" d="M 768 425 C 768 415.6111584 809.8613712 408 861.5 408 C 913.1386288 408 955 415.6111584 955 425 C 955 434.3888416 913.1386288 442 861.5 442 C 809.8613712 442 768 434.3888416 768 425 Z" stroke-miterlimit="10"/></g><g transform="translate(-426,-286) scale(1,1)"><g><path fill="none" stroke="none"/><text fill="#000000" stroke="none" font-family="Arial" font-size="13px" font-style="normal" font-weight="bold" text-decoration="none" x="799.99755859375" y="430.5">Utiliser l'application</text></g></g><g transform="translate(-426,-286) scale(1,1)"><path fill="#ffffff" stroke="none" d="M 467.54509250710225 305.68 C 467.54509250710225 300.886167936 471.43093483204774 297 476.224365234375 297 C 481.01779563670226 297 484.90363796164775 300.886167936 484.90363796164775 305.68 C 484.90363796164775 310.473832064 481.01779563670226 314.36 476.224365234375 314.36 C 471.43093483204774 314.36 467.54509250710225 310.473832064 467.54509250710225 305.68 Z"/></g><g transform="translate(-426,-286) scale(1,1)"><path fill="none" stroke="#000000" d="M 467.54509250710225 305.68 C 467.54509250710225 300.886167936 471.43093483204774 297 476.224365234375 297 C 481.01779563670226 297 484.90363796164775 300.886167936 484.90363796164775 305.68 C 484.90363796164775 310.473832064 481.01779563670226 314.36 476.224365234375 314.36 C 471.43093483204774 314.36 467.54509250710225 310.473832064 467.54509250710225 305.68 Z" stroke-miterlimit="10"/></g><g transform="translate(-426,-286) scale(1,1)"><path fill="none" stroke="#000000" d="M 476.224365234375 314.36 L 476.224365234375 331.64" stroke-miterlimit="10"/></g><g transform="translate(-426,-286) scale(1,1)"><path fill="none" stroke="#000000" d="M 467.03454705255683 320.84 L 485.41418341619317 320.84" stroke-miterlimit="10"/></g><g transform="translate(-426,-286) scale(1,1)"><path fill="none" stroke="#000000" d="M 476.224365234375 331.64 L 463.46072887073865 349" stroke-miterlimit="10"/></g><g transform="translate(-426,-286) scale(1,1)"><path fill="none" stroke="#000000" d="M 476.224365234375 331.64 L 488.98800159801135 349" stroke-miterlimit="10"/></g><g transform="translate(-426,-286) scale(1,1)"><g><path fill="none" stroke="none"/><text fill="#000000" stroke="none" font-family="Arial" font-size="13px" font-style="normal" font-weight="bold" text-decoration="none" x="452.5" y="368">Visiteur</text></g></g><g transform="translate(-426,-286) scale(1,1)"><path fill="#ffffff" stroke="none" d="M 463.60661594460225 475.68 C 463.60661594460225 470.886167936 467.49245826954774 467 472.285888671875 467 C 477.07931907420226 467 480.96516139914775 470.886167936 480.96516139914775 475.68 C 480.96516139914775 480.473832064 477.07931907420226 484.36 472.285888671875 484.36 C 467.49245826954774 484.36 463.60661594460225 480.473832064 463.60661594460225 475.68 Z"/></g><g transform="translate(-426,-286) scale(1,1)"><path fill="none" stroke="#000000" d="M 463.60661594460225 475.68 C 463.60661594460225 470.886167936 467.49245826954774 467 472.285888671875 467 C 477.07931907420226 467 480.96516139914775 470.886167936 480.96516139914775 475.68 C 480.96516139914775 480.473832064 477.07931907420226 484.36 472.285888671875 484.36 C 467.49245826954774 484.36 463.60661594460225 480.473832064 463.60661594460225 475.68 Z" stroke-miterlimit="10"/></g><g transform="translate(-426,-286) scale(1,1)"><path fill="none" stroke="#000000" d="M 472.285888671875 484.36 L 472.285888671875 501.64" stroke-miterlimit="10"/></g><g transform="translate(-426,-286) scale(1,1)"><path fill="none" stroke="#000000" d="M 463.09607049005683 490.84 L 481.47570685369317 490.84" stroke-miterlimit="10"/></g><g transform="translate(-426,-286) scale(1,1)"><path fill="none" stroke="#000000" d="M 472.285888671875 501.64 L 459.52225230823865 519" stroke-miterlimit="10"/></g><g transform="translate(-426,-286) scale(1,1)"><path fill="none" stroke="#000000" d="M 472.285888671875 501.64 L 485.04952503551135 519" stroke-miterlimit="10"/></g><g transform="translate(-426,-286) scale(1,1)"><g><path fill="none" stroke="none"/><text fill="#000000" stroke="none" font-family="Arial" font-size="13px" font-style="normal" font-weight="bold" text-decoration="none" x="440.5" y="538">Utilisateur</text></g></g><g transform="translate(-426,-286) scale(1,1)"><path fill="none" stroke="#000000" d="M 505 345 L 664 400 L 767 413" stroke-miterlimit="10"/></g><g transform="translate(-426,-286) scale(1,1)"><path fill="none" stroke="#000000" d="M 510 493 L 672 440 L 767 432" stroke-miterlimit="10"/></g></g></svg>