<svg version="1.1" xmlns="http://www.w3.org/2000/svg" xmlns:xlink="http://www.w3.org/1999/xlink" width="796" height="228"><defs/><g><text fill="#eeeeee" stroke="none" font-family="Arial" font-size="24px" font-style="normal" font-weight="normal" text-decoration="none" x="0" y="0">UNREGISTERED</text><text fill="#eeeeee" stroke="none" font-family="Arial" font-size="24px" font-style="normal" font-weight="normal" text-decoration="none" x="0" y="30">UNREGISTERED</text><text fill="#eeeeee" stroke="none" font-family="Arial" font-size="24px" font-style="normal" font-weight="normal" text-decoration="none" x="0" y="60">UNREGISTERED</text><text fill="#eeeeee" stroke="none" font-family="Arial" font-size="24px" font-style="normal" font-weight="normal" text-decoration="none" x="0" y="90">UNREGISTERED</text><text fill="#eeeeee" stroke="none" font-family="Arial" font-size="24px" font-style="normal" font-weight="normal" text-decoration="none" x="0" y="120">UNREGISTERED</text><text fill="#eeeeee" stroke="none" font-family="Arial" font-size="24px" font-style="normal" font-weight="normal" text-decoration="none" x="0" y="150">UNREGISTERED</text><text fill="#eeeeee" stroke="none" font-family="Arial" font-size="24px" font-style="normal" font-weight="normal" text-decoration="none" x="0" y="180">UNREGISTERED</text><text fill="#eeeeee" stroke="none" font-family="Arial" font-size="24px" font-style="normal" font-weight="normal" text-decoration="none" x="0" y="210">UNREGISTERED</text><text fill="#eeeeee" stroke="none" font-family="Arial" font-size="24px" font-style="normal" font-weight="normal" text-decoration="none" x="200" y="0">UNREGISTERED</text><text fill="#eeeeee" stroke="none" font-family="Arial" font-size="24px" font-style="normal" font-weight="normal" text-decoration="none" x="200" y="30">UNREGISTERED</text><text fill="#eeeeee" stroke="none" font-family="Arial" font-size="24px" font-style="normal" font-weight="normal" text-decoration="none" x="200" y="60">UNREGISTERED</text><text fill="#eeeeee" stroke="none" font-family="Arial" font-size="24px" font-style="normal" font-weight="normal" text-decoration="none" x="200" y="90">UNREGISTERED</text><text fill="#eeeeee" stroke="none" font-family="Arial" font-size="24px" font-style="normal" font-weight="normal" text-decoration="none" x="200" y="120">UNREGISTERED</text><text fill="#eeeeee" stroke="none" font-family="Arial" font-size="24px" font-style="normal" font-weight="normal" text-decoration="none" x="200" y="150">UNREGISTERED</text><text fill="#eeeeee" stroke="none" font-family="Arial" font-size="24px" font-style="normal" font-weight="normal" text-decoration="none" x="200" y="180">UNREGISTERED</text><text fill="#eeeeee" stroke="none" font-family="Arial" font-size="24px" font-style="normal" font-weight="normal" text-decoration="none" x="200" y="210">UNREGISTERED</text><text fill="#eeeeee" stroke="none" font-family="Arial" font-size="24px" font-style="normal" font-weight="normal" text-decoration="none" x="400" y="0">UNREGISTERED</text><text fill="#eeeeee" stroke="none" font-family="Arial" font-size="24px" font-style="normal" font-weight="normal" text-decoration="none" x="400" y="30">UNREGISTERED</text><text fill="#eeeeee" stroke="none" font-family="Arial" font-size="24px" font-style="normal" font-weight="normal" text-decoration="none" x="400" y="60">UNREGISTERED</text><text fill="#eeeeee" stroke="none" font-family="Arial" font-size="24px" font-style="normal" font-weight="normal" text-decoration="none" x="400" y="90">UNREGISTERED</text><text fill="#eeeeee" stroke="none" font-family="Arial" font-size="24px" font-style="normal" font-weight="normal" text-decoration="none" x="400" y="120">UNREGISTERED</text><text fill="#eeeeee" stroke="none" font-family="Arial" font-size="24px" font-style="normal" font-weight="normal" text-decoration="none" x="400" y="150">UNREGISTERED</text><text fill="#eeeeee" stroke="none" font-family="Arial" font-size="24px" font-style="normal" font-weight="normal" text-decoration="none" x="400" y="180">UNREGISTERED</text><text fill="#eeeeee" stroke="none" font-family="Arial" font-size="24px" font-style="normal" font-weight="normal" text-decoration="none" x="400" y="210">UNREGISTERED</text><text fill="#eeeeee" stroke="none" font-family="Arial" font-size="24px" font-style="normal" font-weight="normal" text-decoration="none" x="600" y="0">UNREGISTERED</text><text fill="#eeeeee" stroke="none" font-family="Arial" font-size="24px" font-style="normal" font-weight="normal" text-decoration="none" x="600" y="30">UNREGISTERED</text><text fill="#eeeeee" stroke="none" font-family="Arial" font-size="24px" font-style="normal" font-weight="normal" text-decoration="none" x="600" y="60">UNREGISTERED</text><text fill="#eeeeee" stroke="none" font-family="Arial" font-size="24px" font-style="normal" font-weight="normal" text-decoration="none" x="600" y="90">UNREGISTERED</text><text fill="#eeeeee" stroke="none" font-family="Arial" font-size="24px" font-style="normal" font-weight="normal" text-decoration="none" x="600" y="120">UNREGISTERED</text><text fill="#eeeeee" stroke="none" font-family="Arial" font-size="24px" font-style="normal" font-weight="normal" text-decoration="none" x="600" y="150">UNREGISTERED</text><text fill="#eeeeee" stroke="none" font-family="Arial" font-size="24px" font-style="normal" font-weight="normal" text-decoration="none" x="600" y="180">UNREGISTERED</text><text fill="#eeeeee" stroke="none" font-family="Arial" font-size="24px" font-style="normal" font-weight="normal" text-decoration="none" x="600" y="210">UNREGISTERED</text><g transform="translate(-526,-478) scale(1,1)"><rect fill="#C0C0C0" stroke="none" x="935" y="495" width="384" height="208" opacity="0.2"/></g><g transform="translate(-526,-478) scale(1,1)"><rect fill="#ffffff" stroke="none" x="928" y="488" width="384" height="208"/></g><g transform="translate(-526,-478) scale(1,1)"><path fill="none" stroke="#000000" d="M 928 488 L 1312 488 L 1312 696 L 928 696 L 928 488 Z Z" stroke-miterlimit="10"/></g><g transform="translate(-526,-478) scale(1,1)"><g><path fill="none" stroke="none"/><text fill="#000000" stroke="none" font-family="Arial" font-size="13px" font-style="normal" font-weight="bold" text-decoration="none" x="1039.349853515625" y="506">Gestion Niveau d'Urgence</text></g></g><g transform="translate(-526,-478) scale(1,1)"><path fill="#C0C0C0" stroke="none" d="M 983 546.5 C 983 531.312168 1045.9039856 519 1123.5 519 C 1201.0960144 519 1264 531.312168 1264 546.5 C 1264 561.687832 1201.0960144 574 1123.5 574 C 1045.9039856 574 983 561.687832 983 546.5 Z" opacity="0.2"/></g><g transform="translate(-526,-478) scale(1,1)"><path fill="#ffffff" stroke="none" d="M 976 539.5 C 976 524.312168 1038.9039856 512 1116.5 512 C 1194.0960144 512 1257 524.312168 1257 539.5 C 1257 554.687832 1194.0960144 567 1116.5 567 C 1038.9039856 567 976 554.687832 976 539.5 Z"/></g><g transform="translate(-526,-478) scale(1,1)"><path fill="none" stroke="#000000" d="M 976 539.5 C 976 524.312168 1038.9039856 512 1116.5 512 C 1194.0960144 512 1257 524.312168 1257 539.5 C 1257 554.687832 1194.0960144 567 1116.5 567 C 1038.9039856 567 976 554.687832 976 539.5 Z" stroke-miterlimit="10"/></g><g transform="translate(-526,-478) scale(1,1)"><g><path fill="none" stroke="none"/><text fill="#000000" stroke="none" font-family="Arial" font-size="13px" font-style="normal" font-weight="bold" text-decoration="none" x="1028.99755859375" y="537.5">Ajouter un niveau d'urgence</text></g></g><g transform="translate(-526,-478) scale(1,1)"><g><path fill="none" stroke="none"/><text fill="#000000" stroke="none" font-family="Arial" font-size="13px" font-style="normal" font-weight="normal" text-decoration="none" x="1021.694580078125" y="552.5">(from Gestion Niveau d'Urgence)</text></g></g><g transform="translate(-526,-478) scale(1,1)"><path fill="#C0C0C0" stroke="none" d="M 943 602.5 C 943 587.312168 1023.588736 575 1123 575 C 1222.411264 575 1303 587.312168 1303 602.5 C 1303 617.687832 1222.411264 630 1123 630 C 1023.588736 630 943 617.687832 943 602.5 Z" opacity="0.2"/></g><g transform="translate(-526,-478) scale(1,1)"><path fill="#ffffff" stroke="none" d="M 936 595.5 C 936 580.312168 1016.588736 568 1116 568 C 1215.411264 568 1296 580.312168 1296 595.5 C 1296 610.687832 1215.411264 623 1116 623 C 1016.588736 623 936 610.687832 936 595.5 Z"/></g><g transform="translate(-526,-478) scale(1,1)"><path fill="none" stroke="#000000" d="M 936 595.5 C 936 580.312168 1016.588736 568 1116 568 C 1215.411264 568 1296 580.312168 1296 595.5 C 1296 610.687832 1215.411264 623 1116 623 C 1016.588736 623 936 610.687832 936 595.5 Z" stroke-miterlimit="10"/></g><g transform="translate(-526,-478) scale(1,1)"><g><path fill="none" stroke="none"/><text fill="#000000" stroke="none" font-family="Arial" font-size="13px" font-style="normal" font-weight="bold" text-decoration="none" x="993.353759765625" y="593.5">Changer le niveau d'urgence d'un ticket</text></g></g><g transform="translate(-526,-478) scale(1,1)"><g><path fill="none" stroke="none"/><text fill="#000000" stroke="none" font-family="Arial" font-size="13px" font-style="normal" font-weight="normal" text-decoration="none" x="1021.194580078125" y="608.5">(from Gestion Niveau d'Urgence)</text></g></g><g transform="translate(-526,-478) scale(1,1)"><path fill="#C0C0C0" stroke="none" d="M 983 658.5 C 983 643.312168 1047.4709888 631 1127 631 C 1206.5290112 631 1271 643.312168 1271 658.5 C 1271 673.687832 1206.5290112 686 1127 686 C 1047.4709888 686 983 673.687832 983 658.5 Z" opacity="0.2"/></g><g transform="translate(-526,-478) scale(1,1)"><path fill="#ffffff" stroke="none" d="M 976 651.5 C 976 636.312168 1040.4709888 624 1120 624 C 1199.5290112 624 1264 636.312168 1264 651.5 C 1264 666.687832 1199.5290112 679 1120 679 C 1040.4709888 679 976 666.687832 976 651.5 Z"/></g><g transform="translate(-526,-478) scale(1,1)"><path fill="none" stroke="#000000" d="M 976 651.5 C 976 636.312168 1040.4709888 624 1120 624 C 1199.5290112 624 1264 636.312168 1264 651.5 C 1264 666.687832 1199.5290112 679 1120 679 C 1040.4709888 679 976 666.687832 976 651.5 Z" stroke-miterlimit="10"/></g><g transform="translate(-526,-478) scale(1,1)"><g><path fill="none" stroke="none"/><text fill="#000000" stroke="none" font-family="Arial" font-size="13px" font-style="normal" font-weight="bold" text-decoration="none" x="1022.7412109375" y="649.5">Supprimer un niveau d'urgence</text></g></g><g transform="translate(-526,-478) scale(1,1)"><g><path fill="none" stroke="none"/><text fill="#000000" stroke="none" font-family="Arial" font-size="13px" font-style="normal" font-weight="normal" text-decoration="none" x="1025.194580078125" y="664.5">(from Gestion Niveau d'Urgence)</text></g></g><g transform="translate(-526,-478) scale(1,1)"><path fill="#ffffff" stroke="none" d="M 593.4596432883523 569.6800000000001 C 593.4596432883523 564.8861679360001 597.3454856132977 561 602.138916015625 561 C 606.9323464179523 561 610.8181887428977 564.8861679360001 610.8181887428977 569.6800000000001 C 610.8181887428977 574.473832064 606.9323464179523 578.36 602.138916015625 578.36 C 597.3454856132977 578.36 593.4596432883523 574.473832064 593.4596432883523 569.6800000000001 Z"/></g><g transform="translate(-526,-478) scale(1,1)"><path fill="none" stroke="#000000" d="M 593.4596432883523 569.6800000000001 C 593.4596432883523 564.8861679360001 597.3454856132977 561 602.138916015625 561 C 606.9323464179523 561 610.8181887428977 564.8861679360001 610.8181887428977 569.6800000000001 C 610.8181887428977 574.473832064 606.9323464179523 578.36 602.138916015625 578.36 C 597.3454856132977 578.36 593.4596432883523 574.473832064 593.4596432883523 569.6800000000001 Z" stroke-miterlimit="10"/></g><g transform="translate(-526,-478) scale(1,1)"><path fill="none" stroke="#000000" d="M 602.138916015625 578.36 L 602.138916015625 595.64" stroke-miterlimit="10"/></g><g transform="translate(-526,-478) scale(1,1)"><path fill="none" stroke="#000000" d="M 592.9490978338068 584.84 L 611.3287341974432 584.84" stroke-miterlimit="10"/></g><g transform="translate(-526,-478) scale(1,1)"><path fill="none" stroke="#000000" d="M 602.138916015625 595.64 L 589.3752796519886 613" stroke-miterlimit="10"/></g><g transform="translate(-526,-478) scale(1,1)"><path fill="none" stroke="#000000" d="M 602.138916015625 595.64 L 614.9025523792614 613" stroke-miterlimit="10"/></g><g transform="translate(-526,-478) scale(1,1)"><g><path fill="none" stroke="none"/><text fill="#000000" stroke="none" font-family="Arial" font-size="13px" font-style="normal" font-weight="bold" text-decoration="none" x="540.5" y="632">Administrateur Web</text></g></g><g transform="translate(-526,-478) scale(1,1)"><path fill="none" stroke="#000000" d="M 669 584 L 856 544 L 975 542" stroke-miterlimit="10"/></g><g transform="translate(-526,-478) scale(1,1)"><path fill="none" stroke="#000000" d="M 669 598 L 935 596" stroke-miterlimit="10"/></g><g transform="translate(-526,-478) scale(1,1)"><path fill="none" stroke="#000000" d="M 669 614 L 856 656 L 975 654" stroke-miterlimit="10"/></g></g></svg>