<svg version="1.1" xmlns="http://www.w3.org/2000/svg" xmlns:xlink="http://www.w3.org/1999/xlink" width="708" height="163"><defs/><g><text fill="#eeeeee" stroke="none" font-family="Arial" font-size="24px" font-style="normal" font-weight="normal" text-decoration="none" x="0" y="0">UNREGISTERED</text><text fill="#eeeeee" stroke="none" font-family="Arial" font-size="24px" font-style="normal" font-weight="normal" text-decoration="none" x="0" y="30">UNREGISTERED</text><text fill="#eeeeee" stroke="none" font-family="Arial" font-size="24px" font-style="normal" font-weight="normal" text-decoration="none" x="0" y="60">UNREGISTERED</text><text fill="#eeeeee" stroke="none" font-family="Arial" font-size="24px" font-style="normal" font-weight="normal" text-decoration="none" x="0" y="90">UNREGISTERED</text><text fill="#eeeeee" stroke="none" font-family="Arial" font-size="24px" font-style="normal" font-weight="normal" text-decoration="none" x="0" y="120">UNREGISTERED</text><text fill="#eeeeee" stroke="none" font-family="Arial" font-size="24px" font-style="normal" font-weight="normal" text-decoration="none" x="0" y="150">UNREGISTERED</text><text fill="#eeeeee" stroke="none" font-family="Arial" font-size="24px" font-style="normal" font-weight="normal" text-decoration="none" x="200" y="0">UNREGISTERED</text><text fill="#eeeeee" stroke="none" font-family="Arial" font-size="24px" font-style="normal" font-weight="normal" text-decoration="none" x="200" y="30">UNREGISTERED</text><text fill="#eeeeee" stroke="none" font-family="Arial" font-size="24px" font-style="normal" font-weight="normal" text-decoration="none" x="200" y="60">UNREGISTERED</text><text fill="#eeeeee" stroke="none" font-family="Arial" font-size="24px" font-style="normal" font-weight="normal" text-decoration="none" x="200" y="90">UNREGISTERED</text><text fill="#eeeeee" stroke="none" font-family="Arial" font-size="24px" font-style="normal" font-weight="normal" text-decoration="none" x="200" y="120">UNREGISTERED</text><text fill="#eeeeee" stroke="none" font-family="Arial" font-size="24px" font-style="normal" font-weight="normal" text-decoration="none" x="200" y="150">UNREGISTERED</text><text fill="#eeeeee" stroke="none" font-family="Arial" font-size="24px" font-style="normal" font-weight="normal" text-decoration="none" x="400" y="0">UNREGISTERED</text><text fill="#eeeeee" stroke="none" font-family="Arial" font-size="24px" font-style="normal" font-weight="normal" text-decoration="none" x="400" y="30">UNREGISTERED</text><text fill="#eeeeee" stroke="none" font-family="Arial" font-size="24px" font-style="normal" font-weight="normal" text-decoration="none" x="400" y="60">UNREGISTERED</text><text fill="#eeeeee" stroke="none" font-family="Arial" font-size="24px" font-style="normal" font-weight="normal" text-decoration="none" x="400" y="90">UNREGISTERED</text><text fill="#eeeeee" stroke="none" font-family="Arial" font-size="24px" font-style="normal" font-weight="normal" text-decoration="none" x="400" y="120">UNREGISTERED</text><text fill="#eeeeee" stroke="none" font-family="Arial" font-size="24px" font-style="normal" font-weight="normal" text-decoration="none" x="400" y="150">UNREGISTERED</text><text fill="#eeeeee" stroke="none" font-family="Arial" font-size="24px" font-style="normal" font-weight="normal" text-decoration="none" x="600" y="0">UNREGISTERED</text><text fill="#eeeeee" stroke="none" font-family="Arial" font-size="24px" font-style="normal" font-weight="normal" text-decoration="none" x="600" y="30">UNREGISTERED</text><text fill="#eeeeee" stroke="none" font-family="Arial" font-size="24px" font-style="normal" font-weight="normal" text-decoration="none" x="600" y="60">UNREGISTERED</text><text fill="#eeeeee" stroke="none" font-family="Arial" font-size="24px" font-style="normal" font-weight="normal" text-decoration="none" x="600" y="90">UNREGISTERED</text><text fill="#eeeeee" stroke="none" font-family="Arial" font-size="24px" font-style="normal" font-weight="normal" text-decoration="none" x="600" y="120">UNREGISTERED</text><text fill="#eeeeee" stroke="none" font-family="Arial" font-size="24px" font-style="normal" font-weight="normal" text-decoration="none" x="600" y="150">UNREGISTERED</text><g transform="translate(-446,-350) scale(1,1)"><rect fill="#C0C0C0" stroke="none" x="767" y="367" width="384" height="143" opacity="0.2"/></g><g transform="translate(-446,-350) scale(1,1)"><rect fill="#ffffff" stroke="none" x="760" y="360" width="384" height="143"/></g><g transform="translate(-446,-350) scale(1,1)"><path fill="none" stroke="#000000" d="M 760 360 L 1144 360 L 1144 503 L 760 503 L 760 360 Z Z" stroke-miterlimit="10"/></g><g transform="translate(-446,-350) scale(1,1)"><g><path fill="none" stroke="none"/><text fill="#000000" stroke="none" font-family="Arial" font-size="13px" font-style="normal" font-weight="bold" text-decoration="none" x="889.891357421875" y="378">Rapport Application</text></g></g><g transform="translate(-446,-350) scale(1,1)"><path fill="#ffffff" stroke="none" d="M 526.5961178977273 409.68 C 526.5961178977273 404.886167936 530.4819602226727 401 535.275390625 401 C 540.0688210273273 401 543.9546633522727 404.886167936 543.9546633522727 409.68 C 543.9546633522727 414.473832064 540.0688210273273 418.36 535.275390625 418.36 C 530.4819602226727 418.36 526.5961178977273 414.473832064 526.5961178977273 409.68 Z"/></g><g transform="translate(-446,-350) scale(1,1)"><path fill="none" stroke="#000000" d="M 526.5961178977273 409.68 C 526.5961178977273 404.886167936 530.4819602226727 401 535.275390625 401 C 540.0688210273273 401 543.9546633522727 404.886167936 543.9546633522727 409.68 C 543.9546633522727 414.473832064 540.0688210273273 418.36 535.275390625 418.36 C 530.4819602226727 418.36 526.5961178977273 414.473832064 526.5961178977273 409.68 Z" stroke-miterlimit="10"/></g><g transform="translate(-446,-350) scale(1,1)"><path fill="none" stroke="#000000" d="M 535.275390625 418.36 L 535.275390625 435.64" stroke-miterlimit="10"/></g><g transform="translate(-446,-350) scale(1,1)"><path fill="none" stroke="#000000" d="M 526.0855724431818 424.84 L 544.4652088068182 424.84" stroke-miterlimit="10"/></g><g transform="translate(-446,-350) scale(1,1)"><path fill="none" stroke="#000000" d="M 535.275390625 435.64 L 522.5117542613636 453" stroke-miterlimit="10"/></g><g transform="translate(-446,-350) scale(1,1)"><path fill="none" stroke="#000000" d="M 535.275390625 435.64 L 548.0390269886364 453" stroke-miterlimit="10"/></g><g transform="translate(-446,-350) scale(1,1)"><g><path fill="none" stroke="none"/><text fill="#000000" stroke="none" font-family="Arial" font-size="13px" font-style="normal" font-weight="bold" text-decoration="none" x="460.5" y="472">Administrateur Système</text></g></g><g transform="translate(-446,-350) scale(1,1)"><path fill="#C0C0C0" stroke="none" d="M 807 464 C 807 454.6111584 873.9334224 447 956.5 447 C 1039.0665776 447 1106 454.6111584 1106 464 C 1106 473.3888416 1039.0665776 481 956.5 481 C 873.9334224 481 807 473.3888416 807 464 Z" opacity="0.2"/></g><g transform="translate(-446,-350) scale(1,1)"><path fill="#ffffff" stroke="none" d="M 800 457 C 800 447.6111584 866.9334224 440 949.5 440 C 1032.0665776 440 1099 447.6111584 1099 457 C 1099 466.3888416 1032.0665776 474 949.5 474 C 866.9334224 474 800 466.3888416 800 457 Z"/></g><g transform="translate(-446,-350) scale(1,1)"><path fill="none" stroke="#000000" d="M 800 457 C 800 447.6111584 866.9334224 440 949.5 440 C 1032.0665776 440 1099 447.6111584 1099 457 C 1099 466.3888416 1032.0665776 474 949.5 474 C 866.9334224 474 800 466.3888416 800 457 Z" stroke-miterlimit="10"/></g><g transform="translate(-446,-350) scale(1,1)"><g><path fill="none" stroke="none"/><text fill="#000000" stroke="none" font-family="Arial" font-size="13px" font-style="normal" font-weight="bold" text-decoration="none" x="848.24853515625" y="462.5">Accéder aux journaux d'activités</text></g></g><g transform="translate(-446,-350) scale(1,1)"><path fill="#C0C0C0" stroke="none" d="M 775 424 C 775 414.6111584 857.1557392 407 958.5 407 C 1059.8442608 407 1142 414.6111584 1142 424 C 1142 433.3888416 1059.8442608 441 958.5 441 C 857.1557392 441 775 433.3888416 775 424 Z" opacity="0.2"/></g><g transform="translate(-446,-350) scale(1,1)"><path fill="#ffffff" stroke="none" d="M 768 417 C 768 407.6111584 850.1557392 400 951.5 400 C 1052.8442608 400 1135 407.6111584 1135 417 C 1135 426.3888416 1052.8442608 434 951.5 434 C 850.1557392 434 768 426.3888416 768 417 Z"/></g><g transform="translate(-446,-350) scale(1,1)"><path fill="none" stroke="#000000" d="M 768 417 C 768 407.6111584 850.1557392 400 951.5 400 C 1052.8442608 400 1135 407.6111584 1135 417 C 1135 426.3888416 1052.8442608 434 951.5 434 C 850.1557392 434 768 426.3888416 768 417 Z" stroke-miterlimit="10"/></g><g transform="translate(-446,-350) scale(1,1)"><g><path fill="none" stroke="none"/><text fill="#000000" stroke="none" font-family="Arial" font-size="13px" font-style="normal" font-weight="bold" text-decoration="none" x="826.054443359375" y="422.5">Accéder aux statistiques de l'application</text></g></g><g transform="translate(-446,-350) scale(1,1)"><path fill="none" stroke="#000000" d="M 616 428 L 711 416 L 767 416" stroke-miterlimit="10"/></g><g transform="translate(-446,-350) scale(1,1)"><path fill="none" stroke="#000000" d="M 616 446 L 735 456 L 799 456" stroke-miterlimit="10"/></g></g></svg>