<svg version="1.1" xmlns="http://www.w3.org/2000/svg" xmlns:xlink="http://www.w3.org/1999/xlink" width="740" height="460"><defs/><g><text fill="#eeeeee" stroke="none" font-family="Arial" font-size="24px" font-style="normal" font-weight="normal" text-decoration="none" x="0" y="0">UNREGISTERED</text><text fill="#eeeeee" stroke="none" font-family="Arial" font-size="24px" font-style="normal" font-weight="normal" text-decoration="none" x="0" y="30">UNREGISTERED</text><text fill="#eeeeee" stroke="none" font-family="Arial" font-size="24px" font-style="normal" font-weight="normal" text-decoration="none" x="0" y="60">UNREGISTERED</text><text fill="#eeeeee" stroke="none" font-family="Arial" font-size="24px" font-style="normal" font-weight="normal" text-decoration="none" x="0" y="90">UNREGISTERED</text><text fill="#eeeeee" stroke="none" font-family="Arial" font-size="24px" font-style="normal" font-weight="normal" text-decoration="none" x="0" y="120">UNREGISTERED</text><text fill="#eeeeee" stroke="none" font-family="Arial" font-size="24px" font-style="normal" font-weight="normal" text-decoration="none" x="0" y="150">UNREGISTERED</text><text fill="#eeeeee" stroke="none" font-family="Arial" font-size="24px" font-style="normal" font-weight="normal" text-decoration="none" x="0" y="180">UNREGISTERED</text><text fill="#eeeeee" stroke="none" font-family="Arial" font-size="24px" font-style="normal" font-weight="normal" text-decoration="none" x="0" y="210">UNREGISTERED</text><text fill="#eeeeee" stroke="none" font-family="Arial" font-size="24px" font-style="normal" font-weight="normal" text-decoration="none" x="0" y="240">UNREGISTERED</text><text fill="#eeeeee" stroke="none" font-family="Arial" font-size="24px" font-style="normal" font-weight="normal" text-decoration="none" x="0" y="270">UNREGISTERED</text><text fill="#eeeeee" stroke="none" font-family="Arial" font-size="24px" font-style="normal" font-weight="normal" text-decoration="none" x="0" y="300">UNREGISTERED</text><text fill="#eeeeee" stroke="none" font-family="Arial" font-size="24px" font-style="normal" font-weight="normal" text-decoration="none" x="0" y="330">UNREGISTERED</text><text fill="#eeeeee" stroke="none" font-family="Arial" font-size="24px" font-style="normal" font-weight="normal" text-decoration="none" x="0" y="360">UNREGISTERED</text><text fill="#eeeeee" stroke="none" font-family="Arial" font-size="24px" font-style="normal" font-weight="normal" text-decoration="none" x="0" y="390">UNREGISTERED</text><text fill="#eeeeee" stroke="none" font-family="Arial" font-size="24px" font-style="normal" font-weight="normal" text-decoration="none" x="0" y="420">UNREGISTERED</text><text fill="#eeeeee" stroke="none" font-family="Arial" font-size="24px" font-style="normal" font-weight="normal" text-decoration="none" x="0" y="450">UNREGISTERED</text><text fill="#eeeeee" stroke="none" font-family="Arial" font-size="24px" font-style="normal" font-weight="normal" text-decoration="none" x="200" y="0">UNREGISTERED</text><text fill="#eeeeee" stroke="none" font-family="Arial" font-size="24px" font-style="normal" font-weight="normal" text-decoration="none" x="200" y="30">UNREGISTERED</text><text fill="#eeeeee" stroke="none" font-family="Arial" font-size="24px" font-style="normal" font-weight="normal" text-decoration="none" x="200" y="60">UNREGISTERED</text><text fill="#eeeeee" stroke="none" font-family="Arial" font-size="24px" font-style="normal" font-weight="normal" text-decoration="none" x="200" y="90">UNREGISTERED</text><text fill="#eeeeee" stroke="none" font-family="Arial" font-size="24px" font-style="normal" font-weight="normal" text-decoration="none" x="200" y="120">UNREGISTERED</text><text fill="#eeeeee" stroke="none" font-family="Arial" font-size="24px" font-style="normal" font-weight="normal" text-decoration="none" x="200" y="150">UNREGISTERED</text><text fill="#eeeeee" stroke="none" font-family="Arial" font-size="24px" font-style="normal" font-weight="normal" text-decoration="none" x="200" y="180">UNREGISTERED</text><text fill="#eeeeee" stroke="none" font-family="Arial" font-size="24px" font-style="normal" font-weight="normal" text-decoration="none" x="200" y="210">UNREGISTERED</text><text fill="#eeeeee" stroke="none" font-family="Arial" font-size="24px" font-style="normal" font-weight="normal" text-decoration="none" x="200" y="240">UNREGISTERED</text><text fill="#eeeeee" stroke="none" font-family="Arial" font-size="24px" font-style="normal" font-weight="normal" text-decoration="none" x="200" y="270">UNREGISTERED</text><text fill="#eeeeee" stroke="none" font-family="Arial" font-size="24px" font-style="normal" font-weight="normal" text-decoration="none" x="200" y="300">UNREGISTERED</text><text fill="#eeeeee" stroke="none" font-family="Arial" font-size="24px" font-style="normal" font-weight="normal" text-decoration="none" x="200" y="330">UNREGISTERED</text><text fill="#eeeeee" stroke="none" font-family="Arial" font-size="24px" font-style="normal" font-weight="normal" text-decoration="none" x="200" y="360">UNREGISTERED</text><text fill="#eeeeee" stroke="none" font-family="Arial" font-size="24px" font-style="normal" font-weight="normal" text-decoration="none" x="200" y="390">UNREGISTERED</text><text fill="#eeeeee" stroke="none" font-family="Arial" font-size="24px" font-style="normal" font-weight="normal" text-decoration="none" x="200" y="420">UNREGISTERED</text><text fill="#eeeeee" stroke="none" font-family="Arial" font-size="24px" font-style="normal" font-weight="normal" text-decoration="none" x="200" y="450">UNREGISTERED</text><text fill="#eeeeee" stroke="none" font-family="Arial" font-size="24px" font-style="normal" font-weight="normal" text-decoration="none" x="400" y="0">UNREGISTERED</text><text fill="#eeeeee" stroke="none" font-family="Arial" font-size="24px" font-style="normal" font-weight="normal" text-decoration="none" x="400" y="30">UNREGISTERED</text><text fill="#eeeeee" stroke="none" font-family="Arial" font-size="24px" font-style="normal" font-weight="normal" text-decoration="none" x="400" y="60">UNREGISTERED</text><text fill="#eeeeee" stroke="none" font-family="Arial" font-size="24px" font-style="normal" font-weight="normal" text-decoration="none" x="400" y="90">UNREGISTERED</text><text fill="#eeeeee" stroke="none" font-family="Arial" font-size="24px" font-style="normal" font-weight="normal" text-decoration="none" x="400" y="120">UNREGISTERED</text><text fill="#eeeeee" stroke="none" font-family="Arial" font-size="24px" font-style="normal" font-weight="normal" text-decoration="none" x="400" y="150">UNREGISTERED</text><text fill="#eeeeee" stroke="none" font-family="Arial" font-size="24px" font-style="normal" font-weight="normal" text-decoration="none" x="400" y="180">UNREGISTERED</text><text fill="#eeeeee" stroke="none" font-family="Arial" font-size="24px" font-style="normal" font-weight="normal" text-decoration="none" x="400" y="210">UNREGISTERED</text><text fill="#eeeeee" stroke="none" font-family="Arial" font-size="24px" font-style="normal" font-weight="normal" text-decoration="none" x="400" y="240">UNREGISTERED</text><text fill="#eeeeee" stroke="none" font-family="Arial" font-size="24px" font-style="normal" font-weight="normal" text-decoration="none" x="400" y="270">UNREGISTERED</text><text fill="#eeeeee" stroke="none" font-family="Arial" font-size="24px" font-style="normal" font-weight="normal" text-decoration="none" x="400" y="300">UNREGISTERED</text><text fill="#eeeeee" stroke="none" font-family="Arial" font-size="24px" font-style="normal" font-weight="normal" text-decoration="none" x="400" y="330">UNREGISTERED</text><text fill="#eeeeee" stroke="none" font-family="Arial" font-size="24px" font-style="normal" font-weight="normal" text-decoration="none" x="400" y="360">UNREGISTERED</text><text fill="#eeeeee" stroke="none" font-family="Arial" font-size="24px" font-style="normal" font-weight="normal" text-decoration="none" x="400" y="390">UNREGISTERED</text><text fill="#eeeeee" stroke="none" font-family="Arial" font-size="24px" font-style="normal" font-weight="normal" text-decoration="none" x="400" y="420">UNREGISTERED</text><text fill="#eeeeee" stroke="none" font-family="Arial" font-size="24px" font-style="normal" font-weight="normal" text-decoration="none" x="400" y="450">UNREGISTERED</text><text fill="#eeeeee" stroke="none" font-family="Arial" font-size="24px" font-style="normal" font-weight="normal" text-decoration="none" x="600" y="0">UNREGISTERED</text><text fill="#eeeeee" stroke="none" font-family="Arial" font-size="24px" font-style="normal" font-weight="normal" text-decoration="none" x="600" y="30">UNREGISTERED</text><text fill="#eeeeee" stroke="none" font-family="Arial" font-size="24px" font-style="normal" font-weight="normal" text-decoration="none" x="600" y="60">UNREGISTERED</text><text fill="#eeeeee" stroke="none" font-family="Arial" font-size="24px" font-style="normal" font-weight="normal" text-decoration="none" x="600" y="90">UNREGISTERED</text><text fill="#eeeeee" stroke="none" font-family="Arial" font-size="24px" font-style="normal" font-weight="normal" text-decoration="none" x="600" y="120">UNREGISTERED</text><text fill="#eeeeee" stroke="none" font-family="Arial" font-size="24px" font-style="normal" font-weight="normal" text-decoration="none" x="600" y="150">UNREGISTERED</text><text fill="#eeeeee" stroke="none" font-family="Arial" font-size="24px" font-style="normal" font-weight="normal" text-decoration="none" x="600" y="180">UNREGISTERED</text><text fill="#eeeeee" stroke="none" font-family="Arial" font-size="24px" font-style="normal" font-weight="normal" text-decoration="none" x="600" y="210">UNREGISTERED</text><text fill="#eeeeee" stroke="none" font-family="Arial" font-size="24px" font-style="normal" font-weight="normal" text-decoration="none" x="600" y="240">UNREGISTERED</text><text fill="#eeeeee" stroke="none" font-family="Arial" font-size="24px" font-style="normal" font-weight="normal" text-decoration="none" x="600" y="270">UNREGISTERED</text><text fill="#eeeeee" stroke="none" font-family="Arial" font-size="24px" font-style="normal" font-weight="normal" text-decoration="none" x="600" y="300">UNREGISTERED</text><text fill="#eeeeee" stroke="none" font-family="Arial" font-size="24px" font-style="normal" font-weight="normal" text-decoration="none" x="600" y="330">UNREGISTERED</text><text fill="#eeeeee" stroke="none" font-family="Arial" font-size="24px" font-style="normal" font-weight="normal" text-decoration="none" x="600" y="360">UNREGISTERED</text><text fill="#eeeeee" stroke="none" font-family="Arial" font-size="24px" font-style="normal" font-weight="normal" text-decoration="none" x="600" y="390">UNREGISTERED</text><text fill="#eeeeee" stroke="none" font-family="Arial" font-size="24px" font-style="normal" font-weight="normal" text-decoration="none" x="600" y="420">UNREGISTERED</text><text fill="#eeeeee" stroke="none" font-family="Arial" font-size="24px" font-style="normal" font-weight="normal" text-decoration="none" x="600" y="450">UNREGISTERED</text><g transform="translate(-294,-286) scale(1,1)"><rect fill="#C0C0C0" stroke="none" x="679" y="303" width="352" height="440" opacity="0.2"/></g><g transform="translate(-294,-286) scale(1,1)"><rect fill="#ffffff" stroke="none" x="672" y="296" width="352" height="440"/></g><g transform="translate(-294,-286) scale(1,1)"><path fill="none" stroke="#000000" d="M 672 296 L 1024 296 L 1024 736 L 672 736 L 672 296 Z Z" stroke-miterlimit="10"/></g><g transform="translate(-294,-286) scale(1,1)"><g><path fill="none" stroke="none"/><text fill="#000000" stroke="none" font-family="Arial" font-size="13px" font-style="normal" font-weight="bold" text-decoration="none" x="803.328369140625" y="314">Gestion Ticket</text></g></g><g transform="translate(-294,-286) scale(1,1)"><path fill="#C0C0C0" stroke="none" d="M 775 392 C 775 382.6111584 808.3547824 375 849.5 375 C 890.6452176 375 924 382.6111584 924 392 C 924 401.3888416 890.6452176 409 849.5 409 C 808.3547824 409 775 401.3888416 775 392 Z" opacity="0.2"/></g><g transform="translate(-294,-286) scale(1,1)"><path fill="#ffffff" stroke="none" d="M 768 385 C 768 375.6111584 801.3547824 368 842.5 368 C 883.6452176 368 917 375.6111584 917 385 C 917 394.3888416 883.6452176 402 842.5 402 C 801.3547824 402 768 394.3888416 768 385 Z"/></g><g transform="translate(-294,-286) scale(1,1)"><path fill="none" stroke="#000000" d="M 768 385 C 768 375.6111584 801.3547824 368 842.5 368 C 883.6452176 368 917 375.6111584 917 385 C 917 394.3888416 883.6452176 402 842.5 402 C 801.3547824 402 768 394.3888416 768 385 Z" stroke-miterlimit="10"/></g><g transform="translate(-294,-286) scale(1,1)"><g><path fill="none" stroke="none"/><text fill="#000000" stroke="none" font-family="Arial" font-size="13px" font-style="normal" font-weight="bold" text-decoration="none" x="794.4609375" y="390.5">Ouvrir un ticket</text></g></g><g transform="translate(-294,-286) scale(1,1)"><path fill="#C0C0C0" stroke="none" d="M 767 632 C 767 622.6111584 808.413656 615 859.5 615 C 910.586344 615 952 622.6111584 952 632 C 952 641.3888416 910.586344 649 859.5 649 C 808.413656 649 767 641.3888416 767 632 Z" opacity="0.2"/></g><g transform="translate(-294,-286) scale(1,1)"><path fill="#ffffff" stroke="none" d="M 760 625 C 760 615.6111584 801.413656 608 852.5 608 C 903.586344 608 945 615.6111584 945 625 C 945 634.3888416 903.586344 642 852.5 642 C 801.413656 642 760 634.3888416 760 625 Z"/></g><g transform="translate(-294,-286) scale(1,1)"><path fill="none" stroke="#000000" d="M 760 625 C 760 615.6111584 801.413656 608 852.5 608 C 903.586344 608 945 615.6111584 945 625 C 945 634.3888416 903.586344 642 852.5 642 C 801.413656 642 760 634.3888416 760 625 Z" stroke-miterlimit="10"/></g><g transform="translate(-294,-286) scale(1,1)"><g><path fill="none" stroke="none"/><text fill="#000000" stroke="none" font-family="Arial" font-size="13px" font-style="normal" font-weight="bold" text-decoration="none" x="792.892333984375" y="630.5">Accéder à un ticket</text></g></g><g transform="translate(-294,-286) scale(1,1)"><path fill="#C0C0C0" stroke="none" d="M 775 480 C 775 470.6111584 811.936504 463 857.5 463 C 903.063496 463 940 470.6111584 940 480 C 940 489.3888416 903.063496 497 857.5 497 C 811.936504 497 775 489.3888416 775 480 Z" opacity="0.2"/></g><g transform="translate(-294,-286) scale(1,1)"><path fill="#ffffff" stroke="none" d="M 768 473 C 768 463.6111584 804.936504 456 850.5 456 C 896.063496 456 933 463.6111584 933 473 C 933 482.3888416 896.063496 490 850.5 490 C 804.936504 490 768 482.3888416 768 473 Z"/></g><g transform="translate(-294,-286) scale(1,1)"><path fill="none" stroke="#000000" d="M 768 473 C 768 463.6111584 804.936504 456 850.5 456 C 896.063496 456 933 463.6111584 933 473 C 933 482.3888416 896.063496 490 850.5 490 C 804.936504 490 768 482.3888416 768 473 Z" stroke-miterlimit="10"/></g><g transform="translate(-294,-286) scale(1,1)"><g><path fill="none" stroke="none"/><text fill="#000000" stroke="none" font-family="Arial" font-size="13px" font-style="normal" font-weight="bold" text-decoration="none" x="796.69091796875" y="478.5">Modifier un ticket</text></g></g><g transform="translate(-294,-286) scale(1,1)"><path fill="#C0C0C0" stroke="none" d="M 775 552 C 775 542.6111584 809.9217856 535 853 535 C 896.0782144 535 931 542.6111584 931 552 C 931 561.3888416 896.0782144 569 853 569 C 809.9217856 569 775 561.3888416 775 552 Z" opacity="0.2"/></g><g transform="translate(-294,-286) scale(1,1)"><path fill="#ffffff" stroke="none" d="M 768 545 C 768 535.6111584 802.9217856 528 846 528 C 889.0782144 528 924 535.6111584 924 545 C 924 554.3888416 889.0782144 562 846 562 C 802.9217856 562 768 554.3888416 768 545 Z"/></g><g transform="translate(-294,-286) scale(1,1)"><path fill="none" stroke="#000000" d="M 768 545 C 768 535.6111584 802.9217856 528 846 528 C 889.0782144 528 924 535.6111584 924 545 C 924 554.3888416 889.0782144 562 846 562 C 802.9217856 562 768 554.3888416 768 545 Z" stroke-miterlimit="10"/></g><g transform="translate(-294,-286) scale(1,1)"><g><path fill="none" stroke="none"/><text fill="#000000" stroke="none" font-family="Arial" font-size="13px" font-style="normal" font-weight="bold" text-decoration="none" x="795.42822265625" y="550.5">Fermer un ticket</text></g></g><g transform="translate(-294,-286) scale(1,1)"><path fill="#C0C0C0" stroke="none" d="M 695 704 C 695 694.6111584 766.6344320000001 687 855 687 C 943.3655679999999 687 1015 694.6111584 1015 704 C 1015 713.3888416 943.3655679999999 721 855 721 C 766.6344320000001 721 695 713.3888416 695 704 Z" opacity="0.2"/></g><g transform="translate(-294,-286) scale(1,1)"><path fill="#ffffff" stroke="none" d="M 688 697 C 688 687.6111584 759.6344320000001 680 848 680 C 936.3655679999999 680 1008 687.6111584 1008 697 C 1008 706.3888416 936.3655679999999 714 848 714 C 759.6344320000001 714 688 706.3888416 688 697 Z"/></g><g transform="translate(-294,-286) scale(1,1)"><path fill="none" stroke="#000000" d="M 688 697 C 688 687.6111584 759.6344320000001 680 848 680 C 936.3655679999999 680 1008 687.6111584 1008 697 C 1008 706.3888416 936.3655679999999 714 848 714 C 759.6344320000001 714 688 706.3888416 688 697 Z" stroke-miterlimit="10"/></g><g transform="translate(-294,-286) scale(1,1)"><g><path fill="none" stroke="none"/><text fill="#000000" stroke="none" font-family="Arial" font-size="13px" font-style="normal" font-weight="bold" text-decoration="none" x="739.28369140625" y="702.5">Ajouter un commentaire à un ticket</text></g></g><g transform="translate(-294,-286) scale(1,1)"><path fill="#ffffff" stroke="none" d="M 331.60661594460225 513.6800000000001 C 331.60661594460225 508.88616793600005 335.49245826954774 505 340.285888671875 505 C 345.07931907420226 505 348.96516139914775 508.88616793600005 348.96516139914775 513.6800000000001 C 348.96516139914775 518.473832064 345.07931907420226 522.36 340.285888671875 522.36 C 335.49245826954774 522.36 331.60661594460225 518.473832064 331.60661594460225 513.6800000000001 Z"/></g><g transform="translate(-294,-286) scale(1,1)"><path fill="none" stroke="#000000" d="M 331.60661594460225 513.6800000000001 C 331.60661594460225 508.88616793600005 335.49245826954774 505 340.285888671875 505 C 345.07931907420226 505 348.96516139914775 508.88616793600005 348.96516139914775 513.6800000000001 C 348.96516139914775 518.473832064 345.07931907420226 522.36 340.285888671875 522.36 C 335.49245826954774 522.36 331.60661594460225 518.473832064 331.60661594460225 513.6800000000001 Z" stroke-miterlimit="10"/></g><g transform="translate(-294,-286) scale(1,1)"><path fill="none" stroke="#000000" d="M 340.285888671875 522.36 L 340.285888671875 539.64" stroke-miterlimit="10"/></g><g transform="translate(-294,-286) scale(1,1)"><path fill="none" stroke="#000000" d="M 331.09607049005683 528.84 L 349.47570685369317 528.84" stroke-miterlimit="10"/></g><g transform="translate(-294,-286) scale(1,1)"><path fill="none" stroke="#000000" d="M 340.285888671875 539.64 L 327.52225230823865 557" stroke-miterlimit="10"/></g><g transform="translate(-294,-286) scale(1,1)"><path fill="none" stroke="#000000" d="M 340.285888671875 539.64 L 353.04952503551135 557" stroke-miterlimit="10"/></g><g transform="translate(-294,-286) scale(1,1)"><g><path fill="none" stroke="none"/><text fill="#000000" stroke="none" font-family="Arial" font-size="13px" font-style="normal" font-weight="bold" text-decoration="none" x="308.5" y="576">Utilisateur</text></g></g><g transform="translate(-294,-286) scale(1,1)"><path fill="none" stroke="#000000" d="M 378 520 L 600 384 L 767 385" stroke-miterlimit="10"/></g><g transform="translate(-294,-286) scale(1,1)"><path fill="none" stroke="#000000" d="M 378 533 L 600 472 L 767 473" stroke-miterlimit="10"/></g><g transform="translate(-294,-286) scale(1,1)"><path fill="none" stroke="#000000" d="M 378 543 L 767 545" stroke-miterlimit="10"/></g><g transform="translate(-294,-286) scale(1,1)"><path fill="none" stroke="#000000" d="M 378 555 L 600 624 L 759 625" stroke-miterlimit="10"/></g><g transform="translate(-294,-286) scale(1,1)"><path fill="none" stroke="#000000" d="M 378 565 L 600 696 L 687 696" stroke-miterlimit="10"/></g></g></svg>