<svg version="1.1" xmlns="http://www.w3.org/2000/svg" xmlns:xlink="http://www.w3.org/1999/xlink" width="804" height="612"><defs/><g><text fill="#eeeeee" stroke="none" font-family="Arial" font-size="24px" font-style="normal" font-weight="normal" text-decoration="none" x="0" y="0">UNREGISTERED</text><text fill="#eeeeee" stroke="none" font-family="Arial" font-size="24px" font-style="normal" font-weight="normal" text-decoration="none" x="0" y="30">UNREGISTERED</text><text fill="#eeeeee" stroke="none" font-family="Arial" font-size="24px" font-style="normal" font-weight="normal" text-decoration="none" x="0" y="60">UNREGISTERED</text><text fill="#eeeeee" stroke="none" font-family="Arial" font-size="24px" font-style="normal" font-weight="normal" text-decoration="none" x="0" y="90">UNREGISTERED</text><text fill="#eeeeee" stroke="none" font-family="Arial" font-size="24px" font-style="normal" font-weight="normal" text-decoration="none" x="0" y="120">UNREGISTERED</text><text fill="#eeeeee" stroke="none" font-family="Arial" font-size="24px" font-style="normal" font-weight="normal" text-decoration="none" x="0" y="150">UNREGISTERED</text><text fill="#eeeeee" stroke="none" font-family="Arial" font-size="24px" font-style="normal" font-weight="normal" text-decoration="none" x="0" y="180">UNREGISTERED</text><text fill="#eeeeee" stroke="none" font-family="Arial" font-size="24px" font-style="normal" font-weight="normal" text-decoration="none" x="0" y="210">UNREGISTERED</text><text fill="#eeeeee" stroke="none" font-family="Arial" font-size="24px" font-style="normal" font-weight="normal" text-decoration="none" x="0" y="240">UNREGISTERED</text><text fill="#eeeeee" stroke="none" font-family="Arial" font-size="24px" font-style="normal" font-weight="normal" text-decoration="none" x="0" y="270">UNREGISTERED</text><text fill="#eeeeee" stroke="none" font-family="Arial" font-size="24px" font-style="normal" font-weight="normal" text-decoration="none" x="0" y="300">UNREGISTERED</text><text fill="#eeeeee" stroke="none" font-family="Arial" font-size="24px" font-style="normal" font-weight="normal" text-decoration="none" x="0" y="330">UNREGISTERED</text><text fill="#eeeeee" stroke="none" font-family="Arial" font-size="24px" font-style="normal" font-weight="normal" text-decoration="none" x="0" y="360">UNREGISTERED</text><text fill="#eeeeee" stroke="none" font-family="Arial" font-size="24px" font-style="normal" font-weight="normal" text-decoration="none" x="0" y="390">UNREGISTERED</text><text fill="#eeeeee" stroke="none" font-family="Arial" font-size="24px" font-style="normal" font-weight="normal" text-decoration="none" x="0" y="420">UNREGISTERED</text><text fill="#eeeeee" stroke="none" font-family="Arial" font-size="24px" font-style="normal" font-weight="normal" text-decoration="none" x="0" y="450">UNREGISTERED</text><text fill="#eeeeee" stroke="none" font-family="Arial" font-size="24px" font-style="normal" font-weight="normal" text-decoration="none" x="0" y="480">UNREGISTERED</text><text fill="#eeeeee" stroke="none" font-family="Arial" font-size="24px" font-style="normal" font-weight="normal" text-decoration="none" x="0" y="510">UNREGISTERED</text><text fill="#eeeeee" stroke="none" font-family="Arial" font-size="24px" font-style="normal" font-weight="normal" text-decoration="none" x="0" y="540">UNREGISTERED</text><text fill="#eeeeee" stroke="none" font-family="Arial" font-size="24px" font-style="normal" font-weight="normal" text-decoration="none" x="0" y="570">UNREGISTERED</text><text fill="#eeeeee" stroke="none" font-family="Arial" font-size="24px" font-style="normal" font-weight="normal" text-decoration="none" x="0" y="600">UNREGISTERED</text><text fill="#eeeeee" stroke="none" font-family="Arial" font-size="24px" font-style="normal" font-weight="normal" text-decoration="none" x="200" y="0">UNREGISTERED</text><text fill="#eeeeee" stroke="none" font-family="Arial" font-size="24px" font-style="normal" font-weight="normal" text-decoration="none" x="200" y="30">UNREGISTERED</text><text fill="#eeeeee" stroke="none" font-family="Arial" font-size="24px" font-style="normal" font-weight="normal" text-decoration="none" x="200" y="60">UNREGISTERED</text><text fill="#eeeeee" stroke="none" font-family="Arial" font-size="24px" font-style="normal" font-weight="normal" text-decoration="none" x="200" y="90">UNREGISTERED</text><text fill="#eeeeee" stroke="none" font-family="Arial" font-size="24px" font-style="normal" font-weight="normal" text-decoration="none" x="200" y="120">UNREGISTERED</text><text fill="#eeeeee" stroke="none" font-family="Arial" font-size="24px" font-style="normal" font-weight="normal" text-decoration="none" x="200" y="150">UNREGISTERED</text><text fill="#eeeeee" stroke="none" font-family="Arial" font-size="24px" font-style="normal" font-weight="normal" text-decoration="none" x="200" y="180">UNREGISTERED</text><text fill="#eeeeee" stroke="none" font-family="Arial" font-size="24px" font-style="normal" font-weight="normal" text-decoration="none" x="200" y="210">UNREGISTERED</text><text fill="#eeeeee" stroke="none" font-family="Arial" font-size="24px" font-style="normal" font-weight="normal" text-decoration="none" x="200" y="240">UNREGISTERED</text><text fill="#eeeeee" stroke="none" font-family="Arial" font-size="24px" font-style="normal" font-weight="normal" text-decoration="none" x="200" y="270">UNREGISTERED</text><text fill="#eeeeee" stroke="none" font-family="Arial" font-size="24px" font-style="normal" font-weight="normal" text-decoration="none" x="200" y="300">UNREGISTERED</text><text fill="#eeeeee" stroke="none" font-family="Arial" font-size="24px" font-style="normal" font-weight="normal" text-decoration="none" x="200" y="330">UNREGISTERED</text><text fill="#eeeeee" stroke="none" font-family="Arial" font-size="24px" font-style="normal" font-weight="normal" text-decoration="none" x="200" y="360">UNREGISTERED</text><text fill="#eeeeee" stroke="none" font-family="Arial" font-size="24px" font-style="normal" font-weight="normal" text-decoration="none" x="200" y="390">UNREGISTERED</text><text fill="#eeeeee" stroke="none" font-family="Arial" font-size="24px" font-style="normal" font-weight="normal" text-decoration="none" x="200" y="420">UNREGISTERED</text><text fill="#eeeeee" stroke="none" font-family="Arial" font-size="24px" font-style="normal" font-weight="normal" text-decoration="none" x="200" y="450">UNREGISTERED</text><text fill="#eeeeee" stroke="none" font-family="Arial" font-size="24px" font-style="normal" font-weight="normal" text-decoration="none" x="200" y="480">UNREGISTERED</text><text fill="#eeeeee" stroke="none" font-family="Arial" font-size="24px" font-style="normal" font-weight="normal" text-decoration="none" x="200" y="510">UNREGISTERED</text><text fill="#eeeeee" stroke="none" font-family="Arial" font-size="24px" font-style="normal" font-weight="normal" text-decoration="none" x="200" y="540">UNREGISTERED</text><text fill="#eeeeee" stroke="none" font-family="Arial" font-size="24px" font-style="normal" font-weight="normal" text-decoration="none" x="200" y="570">UNREGISTERED</text><text fill="#eeeeee" stroke="none" font-family="Arial" font-size="24px" font-style="normal" font-weight="normal" text-decoration="none" x="200" y="600">UNREGISTERED</text><text fill="#eeeeee" stroke="none" font-family="Arial" font-size="24px" font-style="normal" font-weight="normal" text-decoration="none" x="400" y="0">UNREGISTERED</text><text fill="#eeeeee" stroke="none" font-family="Arial" font-size="24px" font-style="normal" font-weight="normal" text-decoration="none" x="400" y="30">UNREGISTERED</text><text fill="#eeeeee" stroke="none" font-family="Arial" font-size="24px" font-style="normal" font-weight="normal" text-decoration="none" x="400" y="60">UNREGISTERED</text><text fill="#eeeeee" stroke="none" font-family="Arial" font-size="24px" font-style="normal" font-weight="normal" text-decoration="none" x="400" y="90">UNREGISTERED</text><text fill="#eeeeee" stroke="none" font-family="Arial" font-size="24px" font-style="normal" font-weight="normal" text-decoration="none" x="400" y="120">UNREGISTERED</text><text fill="#eeeeee" stroke="none" font-family="Arial" font-size="24px" font-style="normal" font-weight="normal" text-decoration="none" x="400" y="150">UNREGISTERED</text><text fill="#eeeeee" stroke="none" font-family="Arial" font-size="24px" font-style="normal" font-weight="normal" text-decoration="none" x="400" y="180">UNREGISTERED</text><text fill="#eeeeee" stroke="none" font-family="Arial" font-size="24px" font-style="normal" font-weight="normal" text-decoration="none" x="400" y="210">UNREGISTERED</text><text fill="#eeeeee" stroke="none" font-family="Arial" font-size="24px" font-style="normal" font-weight="normal" text-decoration="none" x="400" y="240">UNREGISTERED</text><text fill="#eeeeee" stroke="none" font-family="Arial" font-size="24px" font-style="normal" font-weight="normal" text-decoration="none" x="400" y="270">UNREGISTERED</text><text fill="#eeeeee" stroke="none" font-family="Arial" font-size="24px" font-style="normal" font-weight="normal" text-decoration="none" x="400" y="300">UNREGISTERED</text><text fill="#eeeeee" stroke="none" font-family="Arial" font-size="24px" font-style="normal" font-weight="normal" text-decoration="none" x="400" y="330">UNREGISTERED</text><text fill="#eeeeee" stroke="none" font-family="Arial" font-size="24px" font-style="normal" font-weight="normal" text-decoration="none" x="400" y="360">UNREGISTERED</text><text fill="#eeeeee" stroke="none" font-family="Arial" font-size="24px" font-style="normal" font-weight="normal" text-decoration="none" x="400" y="390">UNREGISTERED</text><text fill="#eeeeee" stroke="none" font-family="Arial" font-size="24px" font-style="normal" font-weight="normal" text-decoration="none" x="400" y="420">UNREGISTERED</text><text fill="#eeeeee" stroke="none" font-family="Arial" font-size="24px" font-style="normal" font-weight="normal" text-decoration="none" x="400" y="450">UNREGISTERED</text><text fill="#eeeeee" stroke="none" font-family="Arial" font-size="24px" font-style="normal" font-weight="normal" text-decoration="none" x="400" y="480">UNREGISTERED</text><text fill="#eeeeee" stroke="none" font-family="Arial" font-size="24px" font-style="normal" font-weight="normal" text-decoration="none" x="400" y="510">UNREGISTERED</text><text fill="#eeeeee" stroke="none" font-family="Arial" font-size="24px" font-style="normal" font-weight="normal" text-decoration="none" x="400" y="540">UNREGISTERED</text><text fill="#eeeeee" stroke="none" font-family="Arial" font-size="24px" font-style="normal" font-weight="normal" text-decoration="none" x="400" y="570">UNREGISTERED</text><text fill="#eeeeee" stroke="none" font-family="Arial" font-size="24px" font-style="normal" font-weight="normal" text-decoration="none" x="400" y="600">UNREGISTERED</text><text fill="#eeeeee" stroke="none" font-family="Arial" font-size="24px" font-style="normal" font-weight="normal" text-decoration="none" x="600" y="0">UNREGISTERED</text><text fill="#eeeeee" stroke="none" font-family="Arial" font-size="24px" font-style="normal" font-weight="normal" text-decoration="none" x="600" y="30">UNREGISTERED</text><text fill="#eeeeee" stroke="none" font-family="Arial" font-size="24px" font-style="normal" font-weight="normal" text-decoration="none" x="600" y="60">UNREGISTERED</text><text fill="#eeeeee" stroke="none" font-family="Arial" font-size="24px" font-style="normal" font-weight="normal" text-decoration="none" x="600" y="90">UNREGISTERED</text><text fill="#eeeeee" stroke="none" font-family="Arial" font-size="24px" font-style="normal" font-weight="normal" text-decoration="none" x="600" y="120">UNREGISTERED</text><text fill="#eeeeee" stroke="none" font-family="Arial" font-size="24px" font-style="normal" font-weight="normal" text-decoration="none" x="600" y="150">UNREGISTERED</text><text fill="#eeeeee" stroke="none" font-family="Arial" font-size="24px" font-style="normal" font-weight="normal" text-decoration="none" x="600" y="180">UNREGISTERED</text><text fill="#eeeeee" stroke="none" font-family="Arial" font-size="24px" font-style="normal" font-weight="normal" text-decoration="none" x="600" y="210">UNREGISTERED</text><text fill="#eeeeee" stroke="none" font-family="Arial" font-size="24px" font-style="normal" font-weight="normal" text-decoration="none" x="600" y="240">UNREGISTERED</text><text fill="#eeeeee" stroke="none" font-family="Arial" font-size="24px" font-style="normal" font-weight="normal" text-decoration="none" x="600" y="270">UNREGISTERED</text><text fill="#eeeeee" stroke="none" font-family="Arial" font-size="24px" font-style="normal" font-weight="normal" text-decoration="none" x="600" y="300">UNREGISTERED</text><text fill="#eeeeee" stroke="none" font-family="Arial" font-size="24px" font-style="normal" font-weight="normal" text-decoration="none" x="600" y="330">UNREGISTERED</text><text fill="#eeeeee" stroke="none" font-family="Arial" font-size="24px" font-style="normal" font-weight="normal" text-decoration="none" x="600" y="360">UNREGISTERED</text><text fill="#eeeeee" stroke="none" font-family="Arial" font-size="24px" font-style="normal" font-weight="normal" text-decoration="none" x="600" y="390">UNREGISTERED</text><text fill="#eeeeee" stroke="none" font-family="Arial" font-size="24px" font-style="normal" font-weight="normal" text-decoration="none" x="600" y="420">UNREGISTERED</text><text fill="#eeeeee" stroke="none" font-family="Arial" font-size="24px" font-style="normal" font-weight="normal" text-decoration="none" x="600" y="450">UNREGISTERED</text><text fill="#eeeeee" stroke="none" font-family="Arial" font-size="24px" font-style="normal" font-weight="normal" text-decoration="none" x="600" y="480">UNREGISTERED</text><text fill="#eeeeee" stroke="none" font-family="Arial" font-size="24px" font-style="normal" font-weight="normal" text-decoration="none" x="600" y="510">UNREGISTERED</text><text fill="#eeeeee" stroke="none" font-family="Arial" font-size="24px" font-style="normal" font-weight="normal" text-decoration="none" x="600" y="540">UNREGISTERED</text><text fill="#eeeeee" stroke="none" font-family="Arial" font-size="24px" font-style="normal" font-weight="normal" text-decoration="none" x="600" y="570">UNREGISTERED</text><text fill="#eeeeee" stroke="none" font-family="Arial" font-size="24px" font-style="normal" font-weight="normal" text-decoration="none" x="600" y="600">UNREGISTERED</text><text fill="#eeeeee" stroke="none" font-family="Arial" font-size="24px" font-style="normal" font-weight="normal" text-decoration="none" x="800" y="0">UNREGISTERED</text><text fill="#eeeeee" stroke="none" font-family="Arial" font-size="24px" font-style="normal" font-weight="normal" text-decoration="none" x="800" y="30">UNREGISTERED</text><text fill="#eeeeee" stroke="none" font-family="Arial" font-size="24px" font-style="normal" font-weight="normal" text-decoration="none" x="800" y="60">UNREGISTERED</text><text fill="#eeeeee" stroke="none" font-family="Arial" font-size="24px" font-style="normal" font-weight="normal" text-decoration="none" x="800" y="90">UNREGISTERED</text><text fill="#eeeeee" stroke="none" font-family="Arial" font-size="24px" font-style="normal" font-weight="normal" text-decoration="none" x="800" y="120">UNREGISTERED</text><text fill="#eeeeee" stroke="none" font-family="Arial" font-size="24px" font-style="normal" font-weight="normal" text-decoration="none" x="800" y="150">UNREGISTERED</text><text fill="#eeeeee" stroke="none" font-family="Arial" font-size="24px" font-style="normal" font-weight="normal" text-decoration="none" x="800" y="180">UNREGISTERED</text><text fill="#eeeeee" stroke="none" font-family="Arial" font-size="24px" font-style="normal" font-weight="normal" text-decoration="none" x="800" y="210">UNREGISTERED</text><text fill="#eeeeee" stroke="none" font-family="Arial" font-size="24px" font-style="normal" font-weight="normal" text-decoration="none" x="800" y="240">UNREGISTERED</text><text fill="#eeeeee" stroke="none" font-family="Arial" font-size="24px" font-style="normal" font-weight="normal" text-decoration="none" x="800" y="270">UNREGISTERED</text><text fill="#eeeeee" stroke="none" font-family="Arial" font-size="24px" font-style="normal" font-weight="normal" text-decoration="none" x="800" y="300">UNREGISTERED</text><text fill="#eeeeee" stroke="none" font-family="Arial" font-size="24px" font-style="normal" font-weight="normal" text-decoration="none" x="800" y="330">UNREGISTERED</text><text fill="#eeeeee" stroke="none" font-family="Arial" font-size="24px" font-style="normal" font-weight="normal" text-decoration="none" x="800" y="360">UNREGISTERED</text><text fill="#eeeeee" stroke="none" font-family="Arial" font-size="24px" font-style="normal" font-weight="normal" text-decoration="none" x="800" y="390">UNREGISTERED</text><text fill="#eeeeee" stroke="none" font-family="Arial" font-size="24px" font-style="normal" font-weight="normal" text-decoration="none" x="800" y="420">UNREGISTERED</text><text fill="#eeeeee" stroke="none" font-family="Arial" font-size="24px" font-style="normal" font-weight="normal" text-decoration="none" x="800" y="450">UNREGISTERED</text><text fill="#eeeeee" stroke="none" font-family="Arial" font-size="24px" font-style="normal" font-weight="normal" text-decoration="none" x="800" y="480">UNREGISTERED</text><text fill="#eeeeee" stroke="none" font-family="Arial" font-size="24px" font-style="normal" font-weight="normal" text-decoration="none" x="800" y="510">UNREGISTERED</text><text fill="#eeeeee" stroke="none" font-family="Arial" font-size="24px" font-style="normal" font-weight="normal" text-decoration="none" x="800" y="540">UNREGISTERED</text><text fill="#eeeeee" stroke="none" font-family="Arial" font-size="24px" font-style="normal" font-weight="normal" text-decoration="none" x="800" y="570">UNREGISTERED</text><text fill="#eeeeee" stroke="none" font-family="Arial" font-size="24px" font-style="normal" font-weight="normal" text-decoration="none" x="800" y="600">UNREGISTERED</text><g transform="translate(-246,-126) scale(1,1)"><rect fill="#C0C0C0" stroke="none" x="759" y="143" width="288" height="592" opacity="0.2"/></g><g transform="translate(-246,-126) scale(1,1)"><rect fill="#ffffff" stroke="none" x="752" y="136" width="288" height="592"/></g><g transform="translate(-246,-126) scale(1,1)"><path fill="none" stroke="#000000" d="M 752 136 L 1040 136 L 1040 728 L 752 728 L 752 136 Z Z" stroke-miterlimit="10"/></g><g transform="translate(-246,-126) scale(1,1)"><g><path fill="none" stroke="none"/><text fill="#000000" stroke="none" font-family="Arial" font-size="13px" font-style="normal" font-weight="bold" text-decoration="none" x="862.417724609375" y="154">Connexion</text></g></g><g transform="translate(-246,-126) scale(1,1)"><path fill="#C0C0C0" stroke="none" d="M 839 320 C 839 310.6111584 867.6537728 303 903 303 C 938.3462272 303 967 310.6111584 967 320 C 967 329.3888416 938.3462272 337 903 337 C 867.6537728 337 839 329.3888416 839 320 Z" opacity="0.2"/></g><g transform="translate(-246,-126) scale(1,1)"><path fill="#ffffff" stroke="none" d="M 832 313 C 832 303.6111584 860.6537728 296 896 296 C 931.3462272 296 960 303.6111584 960 313 C 960 322.3888416 931.3462272 330 896 330 C 860.6537728 330 832 322.3888416 832 313 Z"/></g><g transform="translate(-246,-126) scale(1,1)"><path fill="none" stroke="#000000" d="M 832 313 C 832 303.6111584 860.6537728 296 896 296 C 931.3462272 296 960 303.6111584 960 313 C 960 322.3888416 931.3462272 330 896 330 C 860.6537728 330 832 322.3888416 832 313 Z" stroke-miterlimit="10"/></g><g transform="translate(-246,-126) scale(1,1)"><g><path fill="none" stroke="none"/><text fill="#000000" stroke="none" font-family="Arial" font-size="13px" font-style="normal" font-weight="bold" text-decoration="none" x="855.17822265625" y="318.5">Se connecter</text></g></g><g transform="translate(-246,-126) scale(1,1)"><path fill="#C0C0C0" stroke="none" d="M 831 592 C 831 582.6111584 864.57864 575 906 575 C 947.42136 575 981 582.6111584 981 592 C 981 601.3888416 947.42136 609 906 609 C 864.57864 609 831 601.3888416 831 592 Z" opacity="0.2"/></g><g transform="translate(-246,-126) scale(1,1)"><path fill="#ffffff" stroke="none" d="M 824 585 C 824 575.6111584 857.57864 568 899 568 C 940.42136 568 974 575.6111584 974 585 C 974 594.3888416 940.42136 602 899 602 C 857.57864 602 824 594.3888416 824 585 Z"/></g><g transform="translate(-246,-126) scale(1,1)"><path fill="none" stroke="#000000" d="M 824 585 C 824 575.6111584 857.57864 568 899 568 C 940.42136 568 974 575.6111584 974 585 C 974 594.3888416 940.42136 602 899 602 C 857.57864 602 824 594.3888416 824 585 Z" stroke-miterlimit="10"/></g><g transform="translate(-246,-126) scale(1,1)"><g><path fill="none" stroke="none"/><text fill="#000000" stroke="none" font-family="Arial" font-size="13px" font-style="normal" font-weight="bold" text-decoration="none" x="850.5927734375" y="590.5">Se déconnecter</text></g></g><g transform="translate(-246,-126) scale(1,1)"><path fill="#C0C0C0" stroke="none" d="M 823 224 C 823 214.6111584 845.6096176 207 873.5 207 C 901.3903824 207 924 214.6111584 924 224 C 924 233.3888416 901.3903824 241 873.5 241 C 845.6096176 241 823 233.3888416 823 224 Z" opacity="0.2"/></g><g transform="translate(-246,-126) scale(1,1)"><path fill="#ffffff" stroke="none" d="M 816 217 C 816 207.6111584 838.6096176 200 866.5 200 C 894.3903824 200 917 207.6111584 917 217 C 917 226.3888416 894.3903824 234 866.5 234 C 838.6096176 234 816 226.3888416 816 217 Z"/></g><g transform="translate(-246,-126) scale(1,1)"><path fill="none" stroke="#000000" d="M 816 217 C 816 207.6111584 838.6096176 200 866.5 200 C 894.3903824 200 917 207.6111584 917 217 C 917 226.3888416 894.3903824 234 866.5 234 C 838.6096176 234 816 226.3888416 816 217 Z" stroke-miterlimit="10"/></g><g transform="translate(-246,-126) scale(1,1)"><g><path fill="none" stroke="none"/><text fill="#000000" stroke="none" font-family="Arial" font-size="13px" font-style="normal" font-weight="bold" text-decoration="none" x="837.132568359375" y="222.5">S'inscrire</text></g></g><g transform="translate(-246,-126) scale(1,1)"><path fill="#C0C0C0" stroke="none" d="M 783 456 C 783 446.6111584 838.5166848 439 907 439 C 975.4833152 439 1031 446.6111584 1031 456 C 1031 465.3888416 975.4833152 473 907 473 C 838.5166848 473 783 465.3888416 783 456 Z" opacity="0.2"/></g><g transform="translate(-246,-126) scale(1,1)"><path fill="#ffffff" stroke="none" d="M 776 449 C 776 439.6111584 831.5166848 432 900 432 C 968.4833152 432 1024 439.6111584 1024 449 C 1024 458.3888416 968.4833152 466 900 466 C 831.5166848 466 776 458.3888416 776 449 Z"/></g><g transform="translate(-246,-126) scale(1,1)"><path fill="none" stroke="#000000" d="M 776 449 C 776 439.6111584 831.5166848 432 900 432 C 968.4833152 432 1024 439.6111584 1024 449 C 1024 458.3888416 968.4833152 466 900 466 C 831.5166848 466 776 458.3888416 776 449 Z" stroke-miterlimit="10"/></g><g transform="translate(-246,-126) scale(1,1)"><g><path fill="none" stroke="none"/><text fill="#000000" stroke="none" font-family="Arial" font-size="13px" font-style="normal" font-weight="bold" text-decoration="none" x="816.925048828125" y="454.5">Changer son mot de passe</text></g></g><g transform="translate(-246,-126) scale(1,1)"><path fill="#ffffff" stroke="none" d="M 304.91887180397725 449.68 C 304.91887180397725 444.886167936 308.80471412892274 441 313.59814453125 441 C 318.39157493357726 441 322.27741725852275 444.886167936 322.27741725852275 449.68 C 322.27741725852275 454.473832064 318.39157493357726 458.36 313.59814453125 458.36 C 308.80471412892274 458.36 304.91887180397725 454.473832064 304.91887180397725 449.68 Z"/></g><g transform="translate(-246,-126) scale(1,1)"><path fill="none" stroke="#000000" d="M 304.91887180397725 449.68 C 304.91887180397725 444.886167936 308.80471412892274 441 313.59814453125 441 C 318.39157493357726 441 322.27741725852275 444.886167936 322.27741725852275 449.68 C 322.27741725852275 454.473832064 318.39157493357726 458.36 313.59814453125 458.36 C 308.80471412892274 458.36 304.91887180397725 454.473832064 304.91887180397725 449.68 Z" stroke-miterlimit="10"/></g><g transform="translate(-246,-126) scale(1,1)"><path fill="none" stroke="#000000" d="M 313.59814453125 458.36 L 313.59814453125 475.64" stroke-miterlimit="10"/></g><g transform="translate(-246,-126) scale(1,1)"><path fill="none" stroke="#000000" d="M 304.40832634943183 464.84 L 322.78796271306817 464.84" stroke-miterlimit="10"/></g><g transform="translate(-246,-126) scale(1,1)"><path fill="none" stroke="#000000" d="M 313.59814453125 475.64 L 300.83450816761365 493" stroke-miterlimit="10"/></g><g transform="translate(-246,-126) scale(1,1)"><path fill="none" stroke="#000000" d="M 313.59814453125 475.64 L 326.36178089488635 493" stroke-miterlimit="10"/></g><g transform="translate(-246,-126) scale(1,1)"><g><path fill="none" stroke="none"/><text fill="#000000" stroke="none" font-family="Arial" font-size="13px" font-style="normal" font-weight="bold" text-decoration="none" x="281.812255859375" y="512">Utilisateur</text></g></g><g transform="translate(-246,-126) scale(1,1)"><path fill="#ffffff" stroke="none" d="M 307.54509250710225 273.68 C 307.54509250710225 268.886167936 311.43093483204774 265 316.224365234375 265 C 321.01779563670226 265 324.90363796164775 268.886167936 324.90363796164775 273.68 C 324.90363796164775 278.473832064 321.01779563670226 282.36 316.224365234375 282.36 C 311.43093483204774 282.36 307.54509250710225 278.473832064 307.54509250710225 273.68 Z"/></g><g transform="translate(-246,-126) scale(1,1)"><path fill="none" stroke="#000000" d="M 307.54509250710225 273.68 C 307.54509250710225 268.886167936 311.43093483204774 265 316.224365234375 265 C 321.01779563670226 265 324.90363796164775 268.886167936 324.90363796164775 273.68 C 324.90363796164775 278.473832064 321.01779563670226 282.36 316.224365234375 282.36 C 311.43093483204774 282.36 307.54509250710225 278.473832064 307.54509250710225 273.68 Z" stroke-miterlimit="10"/></g><g transform="translate(-246,-126) scale(1,1)"><path fill="none" stroke="#000000" d="M 316.224365234375 282.36 L 316.224365234375 299.64" stroke-miterlimit="10"/></g><g transform="translate(-246,-126) scale(1,1)"><path fill="none" stroke="#000000" d="M 307.03454705255683 288.84 L 325.41418341619317 288.84" stroke-miterlimit="10"/></g><g transform="translate(-246,-126) scale(1,1)"><path fill="none" stroke="#000000" d="M 316.224365234375 299.64 L 303.46072887073865 317" stroke-miterlimit="10"/></g><g transform="translate(-246,-126) scale(1,1)"><path fill="none" stroke="#000000" d="M 316.224365234375 299.64 L 328.98800159801135 317" stroke-miterlimit="10"/></g><g transform="translate(-246,-126) scale(1,1)"><g><path fill="none" stroke="none"/><text fill="#000000" stroke="none" font-family="Arial" font-size="13px" font-style="normal" font-weight="bold" text-decoration="none" x="292.5" y="336">Visiteur</text></g></g><g transform="translate(-246,-126) scale(1,1)"><path fill="none" stroke="#000000" d="M 345 296 L 680 216 L 815 217" stroke-miterlimit="10"/></g><g transform="translate(-246,-126) scale(1,1)"><path fill="none" stroke="#000000" d="M 372 452 L 680 312 L 831 313" stroke-miterlimit="10"/></g><g transform="translate(-246,-126) scale(1,1)"><path fill="none" stroke="#000000" d="M 372 496 L 680 584 L 823 585" stroke-miterlimit="10"/></g><g transform="translate(-246,-126) scale(1,1)"><path fill="none" stroke="#000000" d="M 372 474 L 680 448 L 775 448" stroke-miterlimit="10"/></g></g></svg>